<svg width="100" height="100" viewBox="0 0 100 100" fill="none" xmlns="http://www.w3.org/2000/svg">
<g id="accepted 3">
<circle id="Ellipse 3" cx="50" cy="50" r="48" fill="#E9FFE6" stroke="#24FF00" stroke-width="4"/>
<g id="Group 1">
<path id="Vector" d="M48 50C50.3734 50 52.6935 49.2962 54.6668 47.9776C56.6402 46.6591 58.1783 44.7849 59.0865 42.5922C59.9948 40.3995 60.2324 37.9867 59.7694 35.6589C59.3064 33.3311 58.1635 31.193 56.4853 29.5147C54.807 27.8365 52.6689 26.6936 50.3411 26.2306C48.0133 25.7676 45.6005 26.0052 43.4078 26.9135C41.2151 27.8217 39.3409 29.3598 38.0224 31.3332C36.7038 33.3066 36 35.6266 36 38C36.0032 41.1816 37.2685 44.232 39.5182 46.4818C41.768 48.7315 44.8184 49.9968 48 50ZM48 30C49.5822 30 51.129 30.4692 52.4446 31.3482C53.7602 32.2273 54.7855 33.4767 55.391 34.9385C55.9965 36.4003 56.155 38.0089 55.8463 39.5607C55.5376 41.1126 54.7757 42.538 53.6569 43.6569C52.538 44.7757 51.1126 45.5376 49.5607 45.8463C48.0089 46.155 46.4003 45.9965 44.9385 45.391C43.4767 44.7855 42.2273 43.7602 41.3482 42.4446C40.4692 41.129 40 39.5823 40 38C40 35.8783 40.8429 33.8434 42.3431 32.3431C43.8434 30.8429 45.8783 30 48 30Z" fill="#24FF00"/>
<path id="Vector_2" d="M47.5 54C42.8603 54.0053 38.4121 55.9034 35.1313 59.2779C31.8505 62.6524 30.0051 67.2277 30 72C30 72.5304 30.2049 73.0391 30.5695 73.4142C30.9342 73.7893 31.4287 74 31.9444 74C32.4601 74 32.9547 73.7893 33.3194 73.4142C33.684 73.0391 33.8889 72.5304 33.8889 72C33.8889 68.287 35.3229 64.726 37.8755 62.1005C40.4281 59.475 43.8901 58 47.5 58C51.1099 58 54.5719 59.475 57.1245 62.1005C59.6771 64.726 61.1111 68.287 61.1111 72C61.1111 72.5304 61.316 73.0391 61.6806 73.4142C62.0453 73.7893 62.5399 74 63.0556 74C63.5713 74 64.0658 73.7893 64.4305 73.4142C64.7951 73.0391 65 72.5304 65 72C64.9949 67.2277 63.1495 62.6524 59.8687 59.2779C56.5879 55.9034 52.1397 54.0053 47.5 54Z" fill="#24FF00"/>
<path id="Vector 1" d="M63 51L68 57L75 46" stroke="#24FF00" stroke-width="4" stroke-linecap="round"/>
</g>
</g>
</svg>
