<svg width="100" height="100" viewBox="0 0 100 100" fill="none" xmlns="http://www.w3.org/2000/svg">
<g id="wait 2">
<circle id="Ellipse 2" cx="50" cy="50" r="48" fill="#FFF9E6" stroke="#FFC700" stroke-width="4"/>
<path id="Vector" d="M65.8334 75.9997C62.8338 75.9997 59.9015 75.1102 57.4073 73.4436C54.9132 71.7771 52.9693 69.4084 51.8214 66.6371C50.6734 63.8658 50.3731 60.8163 50.9583 57.8742C51.5435 54.9322 52.988 52.2298 55.1091 50.1087C57.2301 47.9876 59.9326 46.5432 62.8746 45.958C65.8166 45.3727 68.8661 45.6731 71.6374 46.821C74.4088 47.9689 76.7775 49.9129 78.444 52.407C80.1105 54.9011 81 57.8334 81 60.8331C80.9954 64.8541 79.396 68.7091 76.5527 71.5524C73.7095 74.3957 69.8545 75.9951 65.8334 75.9997ZM65.8334 49.9998C63.6908 49.9998 61.5963 50.6352 59.8148 51.8256C58.0333 53.0159 56.6448 54.7079 55.8248 56.6874C55.0049 58.6669 54.7903 60.8451 55.2083 62.9466C55.6263 65.048 56.6581 66.9783 58.1732 68.4934C59.6882 70.0084 61.6185 71.0402 63.72 71.4582C65.8214 71.8762 67.9996 71.6617 69.9791 70.8417C71.9587 70.0218 73.6506 68.6333 74.841 66.8517C76.0313 65.0702 76.6667 62.9757 76.6667 60.8331C76.6633 57.961 75.5208 55.2075 73.4899 53.1766C71.459 51.1457 68.7055 50.0033 65.8334 49.9998ZM69.5319 64.5316C69.9381 64.1253 70.1663 63.5743 70.1663 62.9997C70.1663 62.4252 69.9381 61.8742 69.5319 61.4679L68.0001 59.9361V56.4998C68.0001 55.9252 67.7718 55.3741 67.3655 54.9677C66.9592 54.5614 66.4081 54.3331 65.8334 54.3331C65.2588 54.3331 64.7077 54.5614 64.3014 54.9677C63.8951 55.3741 63.6668 55.9252 63.6668 56.4998V60.8331C63.6669 61.4077 63.8953 61.9587 64.3016 62.3649L66.4683 64.5316C66.8746 64.9378 67.4256 65.1659 68.0001 65.1659C68.5746 65.1659 69.1256 64.9378 69.5319 64.5316ZM33.3337 73.833C33.3391 69.852 34.6654 65.9853 37.1047 62.8391C39.544 59.6928 42.9583 57.445 46.8124 56.4478C47.0901 56.3849 47.3527 56.2679 47.5852 56.1036C47.8177 55.9392 48.0155 55.7307 48.1674 55.4898C48.3193 55.249 48.4223 54.9806 48.4705 54.7C48.5187 54.4194 48.5111 54.132 48.4482 53.8543C48.3853 53.5766 48.2684 53.314 48.104 53.0815C47.9396 52.849 47.7311 52.6512 47.4903 52.4993C47.2494 52.3474 46.9811 52.2444 46.7004 52.1962C46.4198 52.148 46.1324 52.1556 45.8547 52.2185C41.0253 53.4035 36.7359 56.1806 33.6781 60.102C30.6203 64.0234 28.9725 68.8604 29.0003 73.833C29.0003 74.4076 29.2286 74.9587 29.6349 75.3651C30.0413 75.7714 30.5924 75.9997 31.167 75.9997C31.7416 75.9997 32.2927 75.7714 32.6991 75.3651C33.1054 74.9587 33.3337 74.4076 33.3337 73.833ZM47.3606 47.8332C45.0037 47.8332 42.6997 47.1343 40.7401 45.8249C38.7804 44.5155 37.253 42.6543 36.3511 40.4769C35.4491 38.2994 35.2131 35.9034 35.6729 33.5918C36.1327 31.2802 37.2677 29.1569 38.9343 27.4903C40.6008 25.8237 42.7242 24.6888 45.0357 24.229C47.3473 23.7692 49.7434 24.0052 51.9208 24.9071C54.0983 25.809 55.9594 27.3364 57.2688 29.2961C58.5783 31.2558 59.2771 33.5597 59.2771 35.9166C59.2737 39.076 58.0171 42.105 55.7831 44.3391C53.549 46.5731 50.52 47.8297 47.3606 47.8332ZM47.3606 28.3333C45.8607 28.3333 44.3946 28.7781 43.1475 29.6113C41.9004 30.4446 40.9285 31.6289 40.3545 33.0146C39.7806 34.4003 39.6304 35.925 39.923 37.396C40.2156 38.867 40.9378 40.2182 41.9984 41.2788C43.0589 42.3393 44.4101 43.0616 45.8811 43.3542C47.3521 43.6468 48.8769 43.4966 50.2626 42.9226C51.6482 42.3487 52.8326 41.3767 53.6658 40.1296C54.4991 38.8826 54.9438 37.4164 54.9438 35.9166C54.9438 33.9054 54.1449 31.9765 52.7227 30.5544C51.3006 29.1323 49.3718 28.3333 47.3606 28.3333Z" fill="#FFC700"/>
</g>
</svg>
