<svg width="100" height="100" viewBox="0 0 100 100" fill="none" xmlns="http://www.w3.org/2000/svg">
<g id="denied 1">
<circle id="Ellipse 1" cx="50" cy="50" r="48" fill="#FFE6E6" stroke="#FF0000" stroke-width="4"/>
<path id="Vector" d="M47.9908 50C50.3629 50 52.6818 49.2962 54.6542 47.9776C56.6266 46.6591 58.1639 44.7849 59.0717 42.5922C59.9795 40.3995 60.217 37.9867 59.7542 35.6589C59.2914 33.3311 58.1491 31.193 56.4717 29.5147C54.7944 27.8365 52.6573 26.6936 50.3307 26.2306C48.0041 25.7676 45.5925 26.0052 43.4009 26.9135C41.2093 27.8217 39.3362 29.3598 38.0183 31.3332C36.7004 33.3066 35.9969 35.6266 35.9969 38C36.0001 41.1816 37.2648 44.232 39.5134 46.4818C41.762 48.7315 44.8108 49.9968 47.9908 50ZM47.9908 30C49.5722 30 51.1182 30.4692 52.4331 31.3482C53.748 32.2273 54.7729 33.4767 55.378 34.9385C55.9832 36.4003 56.1416 38.0089 55.8331 39.5607C55.5245 41.1126 54.763 42.538 53.6447 43.6569C52.5265 44.7757 51.1018 45.5376 49.5507 45.8463C47.9997 46.155 46.3919 45.9965 44.9309 45.391C43.4698 44.7855 42.221 43.7602 41.3424 42.4446C40.4638 41.129 39.9949 39.5823 39.9949 38C39.9949 35.8783 40.8373 33.8434 42.3368 32.3432C43.8364 30.8429 45.8701 30 47.9908 30ZM65.9816 72C65.9816 72.5304 65.771 73.0391 65.3961 73.4142C65.0212 73.7893 64.5128 74 63.9826 74C63.4524 74 62.944 73.7893 62.5691 73.4142C62.1942 73.0391 61.9836 72.5304 61.9836 72C61.9836 68.287 60.5094 64.726 57.8852 62.1005C55.2611 59.475 51.7019 58 47.9908 58C44.2797 58 40.7205 59.475 38.0964 62.1005C35.4722 64.726 33.998 68.287 33.998 72C33.998 72.5304 33.7873 73.0391 33.4125 73.4142C33.0376 73.7893 32.5291 74 31.999 74C31.4688 74 30.9604 73.7893 30.5855 73.4142C30.2106 73.0391 30 72.5304 30 72C30 67.2261 31.8955 62.6477 35.2694 59.2721C38.6433 55.8964 43.2193 54 47.9908 54C52.7622 54 57.3383 55.8964 60.7122 59.2721C64.0861 62.6477 65.9816 67.2261 65.9816 72ZM77.3897 54.586C77.5807 54.7705 77.7329 54.9912 77.8377 55.2352C77.9425 55.4792 77.9976 55.7416 77.9999 56.0072C78.0022 56.2728 77.9517 56.5361 77.8511 56.7819C77.7506 57.0277 77.6022 57.251 77.4145 57.4388C77.2268 57.6266 77.0036 57.7751 76.758 57.8756C76.5123 57.9762 76.2491 58.0268 75.9837 58.0245C75.7182 58.0222 75.4559 57.967 75.212 57.8622C74.9682 57.7574 74.7476 57.605 74.5632 57.414L70.979 53.828L67.3949 57.414C67.0178 57.7783 66.5129 57.9799 65.9888 57.9754C65.4646 57.9708 64.9633 57.7605 64.5927 57.3896C64.222 57.0188 64.0118 56.5172 64.0072 55.9928C64.0027 55.4684 64.2042 54.9632 64.5683 54.586L68.1525 51L64.5683 47.414C64.2042 47.0368 64.0027 46.5316 64.0072 46.0072C64.0118 45.4828 64.222 44.9812 64.5927 44.6104C64.9633 44.2396 65.4646 44.0292 65.9888 44.0247C66.5129 44.0201 67.0178 44.2217 67.3949 44.586L70.979 48.172L74.5632 44.586C74.9402 44.2217 75.4451 44.0201 75.9693 44.0247C76.4934 44.0292 76.9948 44.2396 77.3654 44.6104C77.736 44.9812 77.9462 45.4828 77.9508 46.0072C77.9554 46.5316 77.7539 47.0368 77.3897 47.414L73.8056 51L77.3897 54.586Z" fill="#FF0000"/>
</g>
</svg>
