<svg width="196" height="68" viewBox="0 0 196 68" fill="none" xmlns="http://www.w3.org/2000/svg">
<g clip-path="url(#clip0_73_528)">
<path d="M37.1701 0.333481L20.2823 33.1205C19.8834 33.8291 19.4846 34.4877 19.0857 35.0796C18.6917 35.6831 18.249 36.2546 17.7619 36.7886H39.8263C40.306 36.797 40.7638 36.9875 41.1039 37.32C41.444 37.6525 41.64 38.1013 41.6508 38.5725V43.8078H9.79321V40.4732C9.76857 39.6502 9.87742 38.8285 10.1157 38.039C10.292 37.5087 10.5047 36.9906 10.7522 36.4884L28.2255 1.14211C28.3673 0.848649 28.5378 0.569451 28.7347 0.308472H0V66.5745H35.8207L52.7085 33.7791C53.1074 33.0705 53.5062 32.4119 53.9051 31.8201C54.3012 31.218 54.7438 30.6466 55.229 30.1111H33.1645C32.6878 30.1047 32.2322 29.917 31.8935 29.5874C31.5548 29.2578 31.3594 28.812 31.3485 28.3438V23.1002H63.1976V26.4347C63.2216 27.2551 63.1128 28.0739 62.8751 28.8606C62.6988 29.391 62.4861 29.909 62.2386 30.4112L44.7653 65.7575C44.623 66.0507 44.4525 66.3298 44.2561 66.5912H72.9823V0.333481H37.1701Z" fill="#00538E"/>
<path d="M86.5604 63.9818V60.3889H87.2733V63.9402C87.2342 64.2064 87.2555 64.4778 87.3357 64.7349C87.4158 64.9921 87.5528 65.2287 87.7368 65.4279C87.9209 65.627 88.1475 65.7837 88.4003 65.8868C88.6532 65.9899 88.9262 66.0368 89.1997 66.0243C90.3538 66.0243 91.0921 65.3323 91.0921 63.9818V60.3889H91.805V63.9318C91.805 65.7325 90.7527 66.6662 89.1742 66.6662C88.8143 66.6904 88.4533 66.6366 88.1168 66.5086C87.7804 66.3806 87.4767 66.1815 87.2273 65.9253C86.9779 65.6692 86.7889 65.3624 86.6737 65.0265C86.5584 64.6906 86.5198 64.334 86.5604 63.9818Z" fill="#4E4E4F"/>
<path d="M93.3919 62.0061H94.0878V62.7731C94.2395 62.5149 94.4588 62.3014 94.723 62.1548C94.9871 62.0082 95.2865 61.9338 95.5899 61.9394C95.9022 61.9297 96.2104 62.0118 96.475 62.1752C96.7395 62.3385 96.9484 62.5757 97.075 62.8564C97.2392 62.5734 97.4779 62.3389 97.7661 62.1776C98.0542 62.0163 98.3812 61.934 98.7128 61.9394C98.9515 61.9381 99.1878 61.9863 99.4063 62.0808C99.6248 62.1753 99.8205 62.3141 99.9807 62.4879C100.141 62.6618 100.262 62.8669 100.336 63.0899C100.41 63.3128 100.435 63.5486 100.41 63.7818V66.6078H99.7227V63.9402C99.7227 63.0565 99.2729 62.5647 98.5177 62.5647C98.3368 62.5659 98.1583 62.6044 97.9936 62.6778C97.829 62.7512 97.6818 62.8578 97.5618 62.9906C97.4418 63.1235 97.3515 63.2796 97.2969 63.4489C97.2423 63.6183 97.2245 63.797 97.2447 63.9735V66.6078H96.5488V63.8901C96.5488 63.0565 96.0906 62.5313 95.3523 62.5313C95.17 62.5374 94.991 62.5799 94.8261 62.6563C94.6612 62.7327 94.5138 62.8413 94.3931 62.9755C94.2724 63.1097 94.1808 63.2667 94.1239 63.4368C94.067 63.607 94.0461 63.7868 94.0623 63.9652V66.5745H93.3665L93.3919 62.0061Z" fill="#4E4E4F"/>
<path d="M101.658 66.141L104.746 62.5813H101.768V62.0061H105.688V62.4396L102.599 65.9992H105.688V66.5745H101.658V66.141Z" fill="#4E4E4F"/>
<path d="M106.851 64.8405V62.0061H107.539V64.6738C107.516 64.8504 107.533 65.0297 107.589 65.1992C107.644 65.3686 107.736 65.5243 107.859 65.6552C107.982 65.7861 108.132 65.8891 108.299 65.9572C108.467 66.0253 108.647 66.0567 108.828 66.0493C109.018 66.0519 109.205 66.0161 109.38 65.9441C109.554 65.8721 109.712 65.7655 109.843 65.6308C109.973 65.4962 110.074 65.3365 110.139 65.1618C110.204 64.9871 110.231 64.801 110.22 64.6154V62.0061H110.899V66.5745H110.22V65.7408C110.07 66.0292 109.841 66.2709 109.56 66.4387C109.278 66.6066 108.954 66.694 108.625 66.6912C108.379 66.7035 108.133 66.6633 107.905 66.5731C107.676 66.4829 107.471 66.345 107.302 66.1689C107.133 65.9929 107.006 65.7829 106.928 65.5535C106.85 65.3241 106.824 65.0808 106.851 64.8405Z" fill="#4E4E4F"/>
<path d="M112.401 67.3664L112.715 66.8329C113.23 67.2162 113.86 67.4213 114.505 67.4164C114.735 67.4432 114.968 67.4186 115.186 67.3443C115.404 67.2699 115.602 67.1479 115.766 66.9874C115.929 66.8269 116.053 66.6321 116.129 66.4176C116.205 66.2031 116.23 65.9746 116.202 65.7492V65.2156C116 65.5087 115.729 65.7492 115.411 65.9162C115.093 66.0832 114.739 66.1718 114.378 66.1743C114.091 66.1799 113.805 66.1287 113.538 66.0236C113.271 65.9186 113.028 65.7618 112.824 65.5628C112.619 65.3637 112.458 65.1263 112.349 64.8648C112.24 64.6032 112.186 64.3228 112.189 64.0402C112.185 63.7561 112.238 63.474 112.346 63.2106C112.455 62.9472 112.616 62.7077 112.82 62.5065C113.024 62.3052 113.267 62.1461 113.534 62.0387C113.802 61.9313 114.089 61.8777 114.378 61.8811C114.735 61.8777 115.087 61.9603 115.403 62.1216C115.72 62.2829 115.991 62.518 116.194 62.8064V61.9728H116.881V65.7742C116.898 66.0691 116.854 66.3645 116.752 66.6424C116.65 66.9203 116.492 67.1751 116.287 67.3914C116.049 67.6029 115.77 67.7657 115.467 67.8701C115.164 67.9746 114.843 68.0188 114.522 68C113.765 68.0112 113.024 67.7897 112.401 67.3664ZM116.211 64.0319C116.204 63.8205 116.155 63.6126 116.066 63.4202C115.977 63.2278 115.849 63.0548 115.692 62.9112C115.534 62.7676 115.348 62.6564 115.146 62.584C114.944 62.5117 114.729 62.4796 114.514 62.4896C114.304 62.4793 114.094 62.5115 113.897 62.5843C113.7 62.6571 113.52 62.7689 113.369 62.9127C113.218 63.0565 113.098 63.2294 113.018 63.4204C112.938 63.6115 112.898 63.8168 112.902 64.0235C112.901 64.2303 112.942 64.4352 113.023 64.6261C113.104 64.8169 113.223 64.9898 113.373 65.1345C113.524 65.2791 113.702 65.3926 113.898 65.4681C114.094 65.5436 114.304 65.5797 114.514 65.5741C114.94 65.5902 115.356 65.4425 115.672 65.1623C115.989 64.8821 116.183 64.4915 116.211 64.0735V64.0319Z" fill="#4E4E4F"/>
<path d="M118.028 65.9909L118.376 65.4991C118.834 65.8605 119.4 66.0653 119.988 66.0826C120.548 66.0826 120.947 65.7992 120.947 65.3574C120.947 64.8989 120.403 64.7238 119.793 64.5237C119.182 64.3237 118.257 64.0736 118.257 63.2316C118.266 63.0416 118.315 62.8555 118.401 62.6851C118.486 62.5147 118.607 62.3636 118.756 62.2413C118.904 62.1191 119.076 62.0285 119.262 61.9751C119.448 61.9217 119.643 61.9067 119.835 61.9311C120.438 61.9357 121.026 62.1092 121.532 62.4313L121.218 62.9398C120.811 62.6684 120.335 62.5153 119.843 62.498C119.292 62.498 118.944 62.7814 118.944 63.1649C118.944 63.5984 119.521 63.7651 120.14 63.9485C120.76 64.1319 121.625 64.432 121.625 65.2573C121.629 65.465 121.586 65.6709 121.501 65.8607C121.415 66.0504 121.288 66.2195 121.129 66.3561C120.97 66.4927 120.782 66.5934 120.579 66.6513C120.376 66.7092 120.163 66.7228 119.954 66.6912C119.251 66.6703 118.575 66.4244 118.028 65.9909Z" fill="#4E4E4F"/>
<path d="M122.407 65.9909L122.763 65.4991C123.218 65.8604 123.782 66.0653 124.367 66.0826C124.927 66.0826 125.334 65.7992 125.334 65.3574C125.334 64.8989 124.782 64.7238 124.172 64.5237C123.561 64.3237 122.636 64.0736 122.636 63.2316C122.645 63.0416 122.694 62.8555 122.78 62.6851C122.865 62.5147 122.986 62.3636 123.135 62.2413C123.283 62.1191 123.455 62.0285 123.641 61.9751C123.827 61.9217 124.022 61.9067 124.214 61.9311C124.817 61.9357 125.405 62.1092 125.911 62.4313L125.597 62.9398C125.19 62.6684 124.714 62.5153 124.222 62.498C123.679 62.498 123.323 62.7814 123.323 63.1649C123.323 63.5984 123.9 63.7651 124.519 63.9485C125.139 64.1319 126.013 64.432 126.013 65.2573C126.013 66.091 125.283 66.6245 124.316 66.6245C123.627 66.6168 122.959 66.395 122.407 65.9909Z" fill="#4E4E4F"/>
<path d="M126.981 64.2986C126.964 63.9982 127.008 63.6975 127.111 63.4142C127.214 63.1309 127.374 62.8709 127.582 62.6494C127.789 62.4279 128.039 62.2494 128.318 62.1246C128.596 61.9998 128.898 61.9312 129.204 61.9227C129.512 61.9268 129.816 61.9941 130.097 62.1203C130.377 62.2465 130.627 62.4288 130.832 62.6556C131.036 62.8824 131.19 63.1487 131.284 63.4373C131.378 63.726 131.409 64.0307 131.376 64.3319C131.38 64.4069 131.38 64.4821 131.376 64.557H127.685C127.698 64.9735 127.877 65.3682 128.183 65.6566C128.49 65.9449 128.899 66.1038 129.323 66.0993C129.6 66.1024 129.875 66.0467 130.128 65.9359C130.381 65.8251 130.607 65.6619 130.79 65.4574L131.223 65.8325C130.989 66.1054 130.695 66.3223 130.362 66.4667C130.03 66.6111 129.669 66.6793 129.306 66.6661C128.992 66.6687 128.682 66.6086 128.393 66.4894C128.104 66.3703 127.843 66.1946 127.625 65.9731C127.408 65.7516 127.239 65.4889 127.128 65.201C127.017 64.9131 126.967 64.6061 126.981 64.2986ZM130.672 64.0402C130.674 63.6471 130.52 63.2686 130.243 62.9852C129.966 62.7018 129.587 62.536 129.187 62.523C128.782 62.5481 128.401 62.7227 128.121 63.0117C127.841 63.3007 127.682 63.6829 127.677 64.0819L130.672 64.0402Z" fill="#4E4E4F"/>
<path d="M132.582 62.0061H133.277V63.1982C133.419 62.8195 133.677 62.4937 134.017 62.2665C134.356 62.0393 134.759 61.922 135.17 61.9311V62.6564H135.119C134.852 62.6587 134.59 62.7167 134.348 62.8266C134.106 62.9365 133.891 63.0957 133.717 63.2937C133.543 63.4917 133.413 63.7238 133.338 63.9747C133.262 64.2256 133.241 64.4895 133.277 64.7488V66.5745H132.582V62.0061Z" fill="#4E4E4F"/>
<path d="M135.781 62.0061H136.545L138.106 65.7908L139.676 62.0061H140.422L138.403 66.6078H137.792L135.781 62.0061Z" fill="#4E4E4F"/>
<path d="M141.509 60.2555H142.298V61.0058H141.509V60.2555ZM141.552 62.0061H142.239V66.5745H141.552V62.0061Z" fill="#4E4E4F"/>
<path d="M143.563 64.307C143.561 63.8224 143.711 63.3489 143.991 62.9501C144.271 62.5512 144.669 62.246 145.13 62.0755C145.592 61.9049 146.096 61.8771 146.574 61.9959C147.052 62.1146 147.482 62.3742 147.805 62.7398L147.347 63.2149C147.18 63.0101 146.97 62.8425 146.731 62.7232C146.493 62.604 146.231 62.5357 145.964 62.523C145.733 62.5227 145.505 62.5686 145.293 62.6581C145.08 62.7476 144.889 62.8786 144.73 63.0433C144.571 63.208 144.448 63.4028 144.369 63.6158C144.289 63.8287 144.255 64.0554 144.267 64.282C144.252 64.5099 144.285 64.7384 144.363 64.9534C144.442 65.1683 144.564 65.3651 144.724 65.5316C144.883 65.6981 145.075 65.8307 145.288 65.9212C145.502 66.0117 145.732 66.0581 145.964 66.0576C146.236 66.0501 146.502 65.9859 146.747 65.8695C146.991 65.7531 147.207 65.5871 147.381 65.3824L147.822 65.7825C147.508 66.152 147.085 66.418 146.612 66.5446C146.139 66.6713 145.638 66.6525 145.176 66.4909C144.714 66.3294 144.313 66.0326 144.028 65.6407C143.743 65.2488 143.586 64.7804 143.58 64.2987L143.563 64.307Z" fill="#4E4E4F"/>
<path d="M148.553 64.2986C148.536 63.9975 148.58 63.6961 148.684 63.4123C148.788 63.1285 148.949 62.8681 149.157 62.6464C149.365 62.4248 149.616 62.2466 149.896 62.1222C150.175 61.9979 150.478 61.9301 150.785 61.9227C151.092 61.9279 151.395 61.9961 151.675 62.1228C151.954 62.2495 152.203 62.432 152.407 62.6587C152.611 62.8853 152.764 63.1512 152.857 63.4393C152.95 63.7274 152.981 64.0314 152.948 64.3319C152.953 64.4069 152.953 64.4821 152.948 64.557H149.266C149.277 64.9728 149.454 65.3675 149.759 65.656C150.064 65.9446 150.472 66.1038 150.895 66.0993C151.172 66.1041 151.448 66.0491 151.701 65.9382C151.955 65.8273 152.181 65.6632 152.363 65.4574L152.753 65.8575C152.519 66.1304 152.224 66.3473 151.892 66.4917C151.56 66.6361 151.199 66.7044 150.835 66.6912C150.524 66.6882 150.215 66.6232 149.93 66.5C149.644 66.3768 149.387 66.198 149.174 65.9744C148.96 65.7508 148.795 65.487 148.689 65.1989C148.582 64.9109 148.536 64.6046 148.553 64.2986ZM152.244 64.0402C152.249 63.6478 152.097 63.2693 151.821 62.9857C151.545 62.7021 151.167 62.536 150.768 62.523C150.361 62.5442 149.978 62.7176 149.697 63.0074C149.416 63.2973 149.259 63.6817 149.257 64.0819L152.244 64.0402Z" fill="#4E4E4F"/>
<path d="M156.462 65.9909L156.81 65.4991C157.269 65.8605 157.835 66.0653 158.422 66.0826C158.982 66.0826 159.381 65.7992 159.381 65.3574C159.381 64.8989 158.838 64.7238 158.227 64.5237C157.616 64.3237 156.691 64.0736 156.691 63.2316C156.7 63.0416 156.749 62.8555 156.835 62.6851C156.921 62.5147 157.042 62.3636 157.19 62.2413C157.338 62.1191 157.511 62.0285 157.697 61.9751C157.883 61.9217 158.078 61.9067 158.269 61.9311C158.872 61.9357 159.461 62.1092 159.966 62.4313L159.653 62.9398C159.246 62.6684 158.769 62.5153 158.278 62.498C157.726 62.498 157.379 62.7814 157.379 63.1649C157.379 63.5984 157.956 63.7651 158.575 63.9485C159.194 64.1319 160.068 64.432 160.068 65.2573C160.068 66.091 159.339 66.6245 158.371 66.6245C157.683 66.618 157.014 66.3961 156.462 65.9909Z" fill="#4E4E4F"/>
<path d="M161.24 64.8405V62.0061H161.936V64.6738C161.912 64.85 161.928 65.0291 161.982 65.1986C162.037 65.3681 162.128 65.5239 162.25 65.655C162.372 65.7861 162.522 65.8893 162.689 65.9575C162.856 66.0256 163.036 66.0569 163.217 66.0493C163.408 66.0555 163.599 66.0223 163.777 65.9518C163.954 65.8814 164.115 65.7753 164.248 65.6403C164.382 65.5053 164.485 65.3444 164.551 65.1679C164.618 64.9914 164.646 64.8032 164.634 64.6154V62.0061H165.321V66.5745H164.634V65.7409C164.484 66.0305 164.254 66.273 163.97 66.441C163.687 66.6089 163.361 66.6956 163.03 66.6912C162.783 66.7061 162.536 66.6677 162.305 66.5786C162.075 66.4896 161.867 66.352 161.696 66.1757C161.526 65.9993 161.396 65.7884 161.318 65.5578C161.239 65.3271 161.212 65.0823 161.24 64.8405ZM162.089 60.4806H162.886V61.3142H162.089V60.4806ZM163.658 60.4806H164.456V61.3142H163.658V60.4806Z" fill="#4E4E4F"/>
<path d="M166.578 64.2986C166.56 63.998 166.603 63.6968 166.706 63.413C166.809 63.1292 166.969 62.8687 167.176 62.6469C167.383 62.4252 167.634 62.2468 167.913 62.1223C168.193 61.9979 168.495 61.93 168.801 61.9227C169.158 61.9243 169.508 62.0146 169.82 62.1852C170.131 62.3557 170.394 62.601 170.583 62.8981V60.1471H171.27V66.5911H170.574V65.6491C170.391 65.9545 170.131 66.2085 169.819 66.3866C169.507 66.5647 169.153 66.661 168.792 66.6662C168.487 66.6589 168.186 66.5912 167.908 66.4672C167.63 66.3432 167.38 66.1654 167.174 65.9444C166.967 65.7235 166.808 65.4638 166.705 65.1811C166.603 64.8983 166.56 64.5982 166.578 64.2986ZM170.608 64.2986C170.62 64.0728 170.584 63.847 170.504 63.6349C170.424 63.4229 170.301 63.2292 170.142 63.0654C169.984 62.9016 169.793 62.7713 169.581 62.6824C169.369 62.5934 169.141 62.5477 168.911 62.548C168.684 62.5471 168.458 62.5929 168.249 62.6825C168.041 62.7721 167.853 62.9034 167.699 63.0682C167.545 63.2329 167.428 63.4274 167.354 63.6393C167.281 63.8512 167.254 64.0757 167.274 64.2986C167.26 64.521 167.292 64.7438 167.367 64.954C167.443 65.1641 167.56 65.3572 167.713 65.522C167.865 65.6867 168.05 65.8197 168.256 65.9132C168.462 66.0066 168.685 66.0585 168.911 66.0659C169.371 66.0464 169.805 65.8486 170.116 65.5158C170.428 65.1829 170.593 64.7422 170.574 64.2903L170.608 64.2986Z" fill="#4E4E4F"/>
<path d="M172.62 63.5567H175.166V64.2736H172.62V63.5567Z" fill="#4E4E4F"/>
<path d="M175.989 62.0061H176.728L177.95 65.6741L179.197 61.9894H179.774L181.03 65.6741L182.252 62.0061H182.973L181.336 66.6078H180.759L179.511 63.0065L178.213 66.6078H177.602L175.989 62.0061Z" fill="#4E4E4F"/>
<path d="M183.601 64.2986C183.582 63.9948 183.625 63.6903 183.729 63.4034C183.833 63.1165 183.994 62.8533 184.205 62.6297C184.415 62.406 184.669 62.2266 184.952 62.1022C185.235 61.9778 185.54 61.9111 185.85 61.9061C186.158 61.9113 186.461 61.9794 186.74 62.1061C187.019 62.2328 187.269 62.4153 187.472 62.642C187.676 62.8687 187.829 63.1345 187.922 63.4226C188.016 63.7107 188.047 64.0147 188.014 64.3153C188.018 64.3903 188.018 64.4654 188.014 64.5404H184.331C184.344 64.9568 184.523 65.3516 184.83 65.6399C185.136 65.9282 185.545 66.0872 185.969 66.0826C186.245 66.0868 186.519 66.0314 186.771 65.9206C187.023 65.8097 187.247 65.6459 187.428 65.4407L187.861 65.8158C187.627 66.0887 187.332 66.3056 187 66.45C186.668 66.5945 186.306 66.6627 185.943 66.6495C185.63 66.6542 185.319 66.5963 185.03 66.4791C184.74 66.362 184.478 66.1882 184.258 65.9683C184.039 65.7483 183.868 65.4869 183.755 65.1998C183.642 64.9128 183.59 64.6061 183.601 64.2986ZM187.292 64.0402C187.297 63.6534 187.15 63.2796 186.881 62.9969C186.613 62.7142 186.243 62.5444 185.85 62.523C185.443 62.5442 185.06 62.7176 184.779 63.0074C184.499 63.2973 184.341 63.6817 184.34 64.0819L187.292 64.0402Z" fill="#4E4E4F"/>
<path d="M188.821 65.9909L189.168 65.4991C189.627 65.8604 190.193 66.0653 190.781 66.0826C191.332 66.0826 191.739 65.7992 191.739 65.3574C191.739 64.8989 191.188 64.7238 190.585 64.5237C189.856 64.3236 189.041 64.0735 189.041 63.2316C189.051 63.0412 189.101 62.855 189.188 62.6845C189.275 62.5141 189.397 62.363 189.545 62.241C189.694 62.1189 189.867 62.0283 190.054 61.975C190.24 61.9217 190.435 61.9067 190.628 61.9311C191.23 61.9371 191.819 62.1105 192.325 62.4313L192.011 62.9398C191.604 62.6684 191.128 62.5153 190.636 62.498C190.085 62.498 189.737 62.7814 189.737 63.1649C189.737 63.5984 190.305 63.7651 190.933 63.9485C191.561 64.1319 192.418 64.432 192.418 65.2573C192.418 66.091 191.697 66.6245 190.721 66.6245C190.035 66.6179 189.369 66.3959 188.821 65.9909Z" fill="#4E4E4F"/>
<path d="M193.827 65.3574V62.6063H193.182V62.0061H193.827V60.6306H194.523V62.0061H196.033V62.6063H194.557V65.274C194.543 65.3776 194.553 65.4831 194.588 65.5821C194.622 65.6812 194.679 65.771 194.755 65.8445C194.83 65.9181 194.923 65.9734 195.024 66.006C195.125 66.0386 195.232 66.0477 195.338 66.0326C195.571 66.0359 195.802 65.9814 196.008 65.8742V66.4578C195.747 66.5931 195.454 66.6592 195.159 66.6495C194.981 66.6722 194.799 66.6546 194.628 66.5979C194.457 66.5413 194.301 66.4471 194.173 66.3225C194.044 66.198 193.946 66.0464 193.887 65.8791C193.827 65.7119 193.807 65.5334 193.827 65.3574Z" fill="#4E4E4F"/>
<path d="M86.2549 17.6815L88.9536 14.5053C90.6344 16.05 92.831 16.9392 95.1316 17.0063C96.9986 17.0063 98.1273 16.281 98.1273 15.0889V15.0055C98.1273 13.8718 97.4145 13.2882 93.952 12.4129C89.7768 11.3709 87.0866 10.2371 87.0866 6.19395V6.13559C87.0866 2.44257 90.1077 4.81602e-06 94.3339 4.81602e-06C97.1272 -0.0423433 99.8485 0.871314 102.031 2.58429L99.6633 5.96053C98.1153 4.77086 96.2363 4.07034 94.2745 3.95146C92.5772 3.95146 91.6098 4.7851 91.6098 5.72711V5.78547C91.6098 7.12763 92.4584 7.56112 96.0821 8.46145C100.325 9.53684 102.651 11.0207 102.651 14.5637V14.622C102.651 18.6652 99.5191 20.9327 95.0128 20.9327C91.7873 20.9361 88.672 19.7796 86.2549 17.6815Z" fill="#4E4E4F"/>
<path d="M106.826 0.291748H111.382V20.6409H106.826V0.291748Z" fill="#4E4E4F"/>
<path d="M116.56 0.291748H132.191V4.27655H121.091V8.44474H130.859V12.4295H121.091V16.6728H132.336V20.6492H116.56V0.291748Z" fill="#4E4E4F"/>
<path d="M136.392 0.291784H146.016C147.992 0.166587 149.938 0.813849 151.43 2.09245C151.896 2.54218 152.262 3.0816 152.506 3.67692C152.75 4.27223 152.866 4.91061 152.847 5.55205V5.61041C152.873 6.5229 152.63 7.42334 152.147 8.20295C151.663 8.98257 150.96 9.608 150.123 10.0037C152.525 10.904 154.001 12.2712 154.001 15.0055V15.0639C154.001 18.7819 150.929 20.6409 146.253 20.6409H136.392V0.291784ZM145.04 8.51981C147.051 8.51981 148.324 7.87791 148.324 6.36902V6.31066C148.324 4.9685 147.255 4.21823 145.328 4.21823H140.873V8.51981H145.04ZM146.253 16.7145C148.264 16.7145 149.478 16.0226 149.478 14.5053V14.4553C149.478 13.0882 148.443 12.2378 146.083 12.2378H140.873V16.7145H146.253Z" fill="#4E4E4F"/>
<path d="M157.761 0.291748H173.392V4.27655H162.292V8.44474H172.06V12.4295H162.292V16.6728H173.537V20.6492H157.761V0.291748Z" fill="#4E4E4F"/>
<path d="M177.593 0.291748H181.794L191.502 12.7963V0.291748H196.034V20.6409H192.156L182.091 7.70281V20.6409H177.593V0.291748Z" fill="#4E4E4F"/>
<path d="M86.2549 39.3395V29.5692H90.0823V39.2394C90.0823 42.0238 91.4995 43.466 93.8332 43.466C96.167 43.466 97.5927 42.0738 97.5927 39.3645V29.5692H101.42V39.1811C101.42 44.358 98.4583 46.9006 93.7823 46.9006C89.1063 46.9006 86.2549 44.3663 86.2549 39.3395Z" fill="#4E4E4F"/>
<path d="M105.315 29.5692H109.473L114.048 36.7969L118.622 29.5692H122.746V46.6838H118.944V35.5047L114.048 42.8074H113.954L109.1 35.5798V46.6838H105.315V29.5692Z" fill="#4E4E4F"/>
<path d="M126.37 43.8078L135.934 32.8704H126.667V29.5359H140.873V32.4286L131.292 43.3493H140.873V46.6839H126.37V43.8078Z" fill="#4E4E4F"/>
<path d="M144.208 39.3395V29.5692H148.035V39.2394C148.035 42.0238 149.453 43.466 151.795 43.466C154.137 43.466 155.546 42.0738 155.546 39.3645V29.5692H159.373V39.1811C159.373 44.358 156.411 46.9006 151.735 46.9006C147.059 46.9006 144.208 44.3663 144.208 39.3395ZM147.272 25.1676H150.895V28.2687H147.272V25.1676ZM152.686 25.1676H156.318V28.2687H152.686V25.1676Z" fill="#4E4E4F"/>
<path d="M162.505 38.164V38.114C162.495 36.9411 162.725 35.7783 163.182 34.6944C163.638 33.6105 164.311 32.6275 165.161 31.8036C166.01 30.9797 167.02 30.3316 168.129 29.8977C169.238 29.4638 170.425 29.2529 171.619 29.2774C174.123 29.1498 176.578 29.9907 178.459 31.62L176.049 34.4794C174.825 33.3339 173.19 32.7105 171.5 32.7454C170.119 32.8039 168.818 33.3972 167.882 34.3954C166.945 35.3937 166.449 36.7157 166.502 38.0723C166.46 38.7747 166.565 39.478 166.812 40.1384C167.059 40.7989 167.441 41.4025 167.935 41.9116C168.43 42.4206 169.025 42.8243 169.685 43.0975C170.345 43.3706 171.055 43.5074 171.772 43.4993C173.049 43.549 174.31 43.2051 175.378 42.5156V40.0731H171.525V36.8219H179.061V44.2496C176.996 46.0029 174.357 46.965 171.627 46.9589C166.23 46.9589 162.505 43.2159 162.505 38.164Z" fill="#4E4E4F"/>
<path d="M182.753 29.5692H195.881V32.9038H186.546V36.3634H194.753V39.6979H186.546V43.3493H196.034V46.6838H182.753V29.5692Z" fill="#4E4E4F"/>
<path d="M196 53.0028H86.2549V54.0699H196V53.0028Z" fill="#4E4E4F"/>
</g>
<defs>
<clipPath id="clip0_73_528">
<rect width="196" height="68" fill="white"/>
</clipPath>
</defs>
</svg>
