<svg width="48" height="48" viewBox="0 0 48 48" fill="none" xmlns="http://www.w3.org/2000/svg">
<circle cx="24" cy="24" r="24" fill="#F4F5F6"/>
<path d="M23.9999 23.8041C26.7345 23.8041 28.9494 21.3859 28.9494 18.4252C28.9494 15.5098 26.7345 13.1932 23.9999 13.1932C21.2765 13.1932 19.0391 15.5437 19.0504 18.4478C19.0617 21.3972 21.2652 23.8041 23.9999 23.8041ZM23.9999 21.8266C22.4404 21.8266 21.1183 20.3463 21.1183 18.4478C21.107 16.5946 22.4291 15.1708 23.9999 15.1708C25.5819 15.1708 26.8814 16.572 26.8814 18.4252C26.8814 20.3237 25.5706 21.8266 23.9999 21.8266ZM16.9485 34.3134H31.0399C32.9948 34.3134 33.9328 33.6918 33.9328 32.3584C33.9328 29.2509 30.0568 25.115 23.9999 25.115C17.9429 25.115 14.0557 29.2509 14.0557 32.3584C14.0557 33.6918 14.9936 34.3134 16.9485 34.3134ZM16.5982 32.3358C16.327 32.3358 16.2253 32.2454 16.2253 32.042C16.2253 30.3131 19.0165 27.0925 23.9999 27.0925C28.972 27.0925 31.7631 30.3131 31.7631 32.042C31.7631 32.2454 31.6614 32.3358 31.3902 32.3358H16.5982Z" fill="#BDBDBD"/>
</svg>
