<svg width="54" height="54" viewBox="0 0 54 54" fill="none" xmlns="http://www.w3.org/2000/svg">
<g id="Layer_1">
<g id="Group">
<g id="Group_2">
<path id="Vector" d="M3.84553 40.4181C3.35462 40.4181 3.02734 40.0909 3.02734 39.5999V38.6999C3.02734 37.2272 3.76371 35.9181 5.0728 35.2636L7.60916 33.8727C8.01825 33.709 8.26371 33.2999 8.26371 32.8909V31.4999C8.26371 31.009 8.59098 30.6818 9.08189 30.6818C9.5728 30.6818 9.90007 31.009 9.90007 31.4999V32.8909C9.90007 33.9545 9.32734 34.8545 8.34553 35.3454L5.80916 36.7363C5.0728 37.0636 4.66371 37.8818 4.66371 38.6999V39.5999C4.66371 40.0909 4.33643 40.4181 3.84553 40.4181Z" fill="#00538E"/>
</g>
<g id="Group_3">
<path id="Vector_2" d="M17.836 40.4181C17.3451 40.4181 17.0178 40.0908 17.0178 39.5999V38.7817C17.0178 37.9636 16.5269 37.1454 15.8724 36.8181L13.336 35.4272C12.436 34.9363 11.8633 34.0363 11.8633 32.9726V31.5817C11.8633 31.0908 12.1906 30.7635 12.6815 30.7635C13.1724 30.7635 13.4996 31.0908 13.4996 31.5817V32.9726C13.4996 33.3817 13.7451 33.7908 14.0724 33.9545L16.6087 35.3454C17.836 35.9999 18.6542 37.309 18.6542 38.7817V39.5999C18.6542 40.0908 18.3269 40.4181 17.836 40.4181Z" fill="#00538E"/>
</g>
<g id="Group_4">
<path id="Vector_3" d="M14.3184 26.7545H8.10018C6.62745 26.7545 5.31836 25.4454 5.31836 23.9727V22.8272C5.31836 22.3363 5.64563 22.009 6.13654 22.009H11.6184C13.582 22.009 15.1365 23.5636 15.1365 25.5272V25.9363C15.1365 26.4272 14.8093 26.7545 14.3184 26.7545ZM6.95472 23.6454V23.9727C6.95472 24.5454 7.52745 25.1181 8.10018 25.1181H13.4184C13.2547 24.2999 12.4365 23.6454 11.6184 23.6454H6.95472Z" fill="#00538E"/>
</g>
<g id="Group_5">
<path id="Vector_4" d="M10.8012 32.8909C8.34666 32.8909 6.46484 31.0091 6.46484 28.5545V25.9363C6.46484 25.4454 6.79212 25.1182 7.28303 25.1182C7.77393 25.1182 8.10121 25.4454 8.10121 25.9363V28.5545C8.10121 30.1091 9.24666 31.2545 10.8012 31.2545C12.3558 31.2545 13.5012 30.1091 13.5012 28.5545V25.9363C13.5012 25.4454 13.8285 25.1182 14.3194 25.1182C14.8103 25.1182 15.1376 25.4454 15.1376 25.9363V28.5545C15.1376 31.0091 13.2558 32.8909 10.8012 32.8909Z" fill="#00538E"/>
</g>
<g id="Group_6">
<path id="Vector_5" d="M12.6829 40.4181C12.3556 40.4181 12.0283 40.1726 11.8647 39.8453L10.7192 36.2453C10.5556 35.8363 10.801 35.3453 11.2101 35.1817C11.6192 35.0181 12.1101 35.2635 12.2738 35.7544L13.4192 39.3544C13.5829 39.7635 13.3374 40.2544 12.9283 40.4181C12.8465 40.4181 12.7647 40.4181 12.6829 40.4181Z" fill="#00538E"/>
</g>
<g id="Group_7">
<path id="Vector_6" d="M9.16479 40.4182C9.08297 40.4182 9.08297 40.4182 9.00115 40.4182C8.59206 40.3364 8.26479 39.8454 8.34661 39.4364L9.16479 35.8364C9.24661 35.4273 9.73751 35.1 10.1466 35.1818C10.5557 35.2636 10.883 35.7545 10.8012 36.1636L9.98297 39.7636C9.90115 40.1727 9.57388 40.4182 9.16479 40.4182Z" fill="#00538E"/>
</g>
<g id="Group_8">
<path id="Vector_7" d="M10.8008 37.2272C10.6371 37.2272 10.4735 37.2272 10.3917 37.1454L7.52805 35.4272C7.11896 35.1817 7.03714 34.6908 7.2826 34.2817C7.52805 33.8726 8.01896 33.7908 8.42805 34.0363L10.8826 35.509L13.3371 34.1181C13.7462 33.8726 14.2371 34.0363 14.4826 34.4454C14.7281 34.8544 14.5644 35.3454 14.1553 35.5908L11.2917 37.2272C11.0462 37.2272 10.9644 37.2272 10.8008 37.2272Z" fill="#00538E"/>
</g>
<g id="Group_9">
<path id="Vector_8" d="M36.0819 40.4181C35.5909 40.4181 35.2637 40.0909 35.2637 39.5999V38.6999C35.2637 37.2272 36 35.9181 37.3091 35.2636L39.7637 33.8727C40.1728 33.6272 40.4182 33.2999 40.4182 32.8909V31.4999C40.4182 31.009 40.7455 30.6818 41.2364 30.6818C41.7273 30.6818 42.0546 31.009 42.0546 31.4999V32.8909C42.0546 33.9545 41.4819 34.8545 40.5 35.3454L38.0455 36.7363C37.3091 37.0636 36.9 37.8818 36.9 38.6999V39.5999C36.9 40.0909 36.5728 40.4181 36.0819 40.4181Z" fill="#00538E"/>
</g>
<g id="Group_10">
<path id="Vector_9" d="M50.0723 40.4181C49.5814 40.4181 49.2542 40.0908 49.2542 39.5999V38.7817C49.2542 37.9636 48.7632 37.1454 48.1087 36.8181L45.5723 35.4272C44.6723 34.9363 44.0996 34.0363 44.0996 32.9726V31.5817C44.0996 31.0908 44.4269 30.7635 44.9178 30.7635C45.4087 30.7635 45.736 31.0908 45.736 31.5817V32.9726C45.736 33.3817 45.9814 33.7908 46.3087 33.9545L48.8451 35.3454C50.0723 35.9999 50.8905 37.309 50.8905 38.7817V39.5999C50.8905 40.0908 50.5632 40.4181 50.0723 40.4181Z" fill="#00538E"/>
</g>
<g id="Group_11">
<path id="Vector_10" d="M46.4727 26.7545H40.2545C38.7817 26.7545 37.4727 25.4454 37.4727 23.9727V22.8272C37.4727 22.3363 37.7999 22.009 38.2908 22.009H43.7727C45.7363 22.009 47.2908 23.5636 47.2908 25.5272V25.9363C47.2908 26.4272 46.9636 26.7545 46.4727 26.7545ZM39.109 23.6454V23.9727C39.109 24.5454 39.6817 25.1181 40.2545 25.1181H45.5727C45.409 24.2999 44.5908 23.6454 43.7727 23.6454H39.109Z" fill="#00538E"/>
</g>
<g id="Group_12">
<path id="Vector_11" d="M42.9555 32.8909C40.501 32.8909 38.6191 31.0091 38.6191 28.5545V25.9363C38.6191 25.4454 38.9464 25.1182 39.4373 25.1182C39.9282 25.1182 40.2555 25.4454 40.2555 25.9363V28.5545C40.2555 30.1091 41.401 31.2545 42.9555 31.2545C44.51 31.2545 45.6555 30.1091 45.6555 28.5545V25.9363C45.6555 25.4454 45.9828 25.1182 46.4737 25.1182C46.9646 25.1182 47.2919 25.4454 47.2919 25.9363V28.5545C47.2919 31.0091 45.41 32.8909 42.9555 32.8909Z" fill="#00538E"/>
</g>
<g id="Group_13">
<path id="Vector_12" d="M44.8366 40.4182C44.5093 40.4182 44.1821 40.1727 44.0184 39.8454L42.9548 36.2454C42.7911 35.8363 43.0366 35.3454 43.5275 35.2636C43.9366 35.1 44.4275 35.3454 44.5093 35.8363L45.573 39.4364C45.7366 39.8454 45.4911 40.3364 45.0002 40.4182C45.0002 40.4182 44.9184 40.4182 44.8366 40.4182Z" fill="#00538E"/>
</g>
<g id="Group_14">
<path id="Vector_13" d="M41.4011 40.4182C41.3193 40.4182 41.3193 40.4182 41.2375 40.4182C40.8284 40.3364 40.5011 39.8454 40.5829 39.4364L41.4011 35.8364C41.4829 35.4273 41.9738 35.1 42.3829 35.1818C42.792 35.2636 43.1193 35.7545 43.0375 36.1636L42.2193 39.7636C42.1375 40.1727 41.8102 40.4182 41.4011 40.4182Z" fill="#00538E"/>
</g>
<g id="Group_15">
<path id="Vector_14" d="M43.0371 37.2272C42.8735 37.2272 42.7098 37.2272 42.628 37.1454L39.7644 35.4272C39.3553 35.1817 39.2735 34.6908 39.5189 34.2817C39.7644 33.8726 40.2553 33.7908 40.6644 34.0363L43.1189 35.509L45.4917 34.1181C45.9007 33.8726 46.3917 34.0363 46.6371 34.4454C46.8826 34.8544 46.7189 35.3454 46.3098 35.5908L43.528 37.2272C43.3644 37.2272 43.2007 37.2272 43.0371 37.2272Z" fill="#00538E"/>
</g>
<g id="Group_16">
<path id="Vector_15" d="M26.5091 15.5454C23.8909 15.5454 21.7637 13.4181 21.7637 10.7999C21.7637 9.65448 22.0909 8.67266 22.8273 7.77266C23.0728 7.44539 23.6455 7.36357 23.9728 7.60903C24.3 7.85448 24.3819 8.42721 24.1364 8.75448C23.6455 9.40903 23.4 10.0636 23.4 10.7999C23.4 12.5181 24.7909 13.909 26.5091 13.909C28.2273 13.909 29.6182 12.5181 29.6182 10.7999C29.6182 10.309 29.9455 9.98175 30.4364 9.98175C30.9273 9.98175 31.2546 10.309 31.2546 10.7999C31.2546 13.4181 29.1273 15.5454 26.5091 15.5454Z" fill="#00538E"/>
</g>
<g id="Group_17">
<path id="Vector_16" d="M21.4367 19.9636C21.3549 19.9636 21.2731 19.9636 21.2731 19.9636C19.5549 19.5545 17.8367 18.8999 16.0367 17.9181C15.8731 17.8363 15.7095 17.6727 15.6276 17.4272C15.5458 17.1818 15.6276 17.0181 15.7095 16.7727L16.6095 15.1363C18.164 12.3545 19.3095 9.98177 20.1276 7.52722C20.1276 7.4454 20.2095 7.36359 20.2095 7.36359C21.1913 4.82722 23.6458 3.02722 26.3458 3.02722C29.2095 3.02722 31.7458 4.90904 32.6458 7.52722L33.6276 9.89995C34.2822 11.4545 35.0186 13.009 36.164 15.0545L37.064 16.6909C37.1458 16.8545 37.2276 17.0999 37.1458 17.3454C37.064 17.5909 36.9004 17.7545 36.7367 17.8363C34.9367 18.7363 33.3004 19.3909 31.664 19.7999C31.2549 19.8818 30.764 19.6363 30.6822 19.2272C30.6004 18.8181 30.8458 18.3272 31.2549 18.2454C32.4822 17.9181 33.7913 17.4272 35.264 16.7727L34.7731 15.8727C33.6276 13.8272 32.8095 12.1909 32.1549 10.5545L31.1731 8.09995C30.5185 6.05449 28.5549 4.66359 26.4276 4.66359C24.3822 4.66359 22.5822 5.97268 21.8458 7.8545C21.8458 7.93631 21.764 8.09995 21.6822 8.18177C20.7822 10.7181 19.6367 13.1727 18.0822 15.9545L17.5913 16.8545C19.064 17.5909 20.3731 18.0818 21.764 18.409C22.1731 18.4909 22.5004 18.9818 22.3367 19.3909C22.1731 19.7181 21.8458 19.9636 21.4367 19.9636Z" fill="#00538E"/>
</g>
<g id="Group_18">
<path id="Vector_17" d="M32.6452 11.7818C28.3088 11.6999 26.5906 10.5545 26.427 10.3908C24.7906 9.16357 23.0725 8.67266 21.2725 9.08175C21.1906 9.16357 21.027 9.16357 20.9452 9.16357C20.8634 9.16357 20.8634 9.16357 20.7815 9.16357C20.4543 9.08175 20.127 8.8363 20.127 8.42721C20.0452 8.01812 20.2906 7.60902 20.6997 7.52721C23.1543 6.95448 25.3634 7.44539 27.4088 9.08175C29.4543 10.7181 28.8816 10.0636 32.6452 10.1454C33.1361 10.1454 33.4634 10.5545 33.4634 10.9636C33.4634 11.4545 33.0543 11.7818 32.6452 11.7818Z" fill="#00538E"/>
</g>
<g id="Group_19">
<path id="Vector_18" d="M19.5545 23.8091C19.0636 23.8091 18.7363 23.4818 18.7363 22.9909V21.7636C18.7363 20.3727 19.4727 19.0636 20.7 18.4091L20.9454 18.2455L23.3181 17.0182C23.7272 16.8545 23.9727 16.4455 23.9727 16.0364V14.6455C23.9727 14.1545 24.3 13.8273 24.7909 13.8273C25.2818 13.8273 25.6091 14.1545 25.6091 14.6455V16.0364C25.6091 17.1 25.0363 18 24.0545 18.4909L21.6 19.8C21.6 19.8 21.5181 19.8 21.5181 19.8818C20.8636 20.2091 20.4545 20.9455 20.4545 21.7636V22.9909C20.3727 23.4818 20.0454 23.8091 19.5545 23.8091Z" fill="#00538E"/>
</g>
<g id="Group_20">
<path id="Vector_19" d="M33.463 23.8909C32.9721 23.8909 32.6448 23.5636 32.6448 23.0727V21.9272C32.6448 21.1091 32.2357 20.3727 31.4993 19.9636L31.0902 19.7181L29.0448 18.6545C28.1448 18.1636 27.4902 17.2636 27.4902 16.2V14.7272C27.4902 14.2363 27.8175 13.9091 28.3084 13.9091C28.7993 13.9091 29.1266 14.2363 29.1266 14.7272V16.2C29.1266 16.6091 29.3721 17.0181 29.6993 17.1818L32.2357 18.4909C33.5448 19.2272 34.2811 20.4545 34.2811 21.9272V23.0727C34.2811 23.5636 33.9539 23.8909 33.463 23.8909Z" fill="#00538E"/>
</g>
<g id="Group_21">
<path id="Vector_20" d="M26.4281 20.6999C24.8735 20.6999 23.4008 20.209 22.1735 19.2272C21.8463 18.9818 21.7645 18.409 22.0099 18.0818C22.2554 17.7545 22.8281 17.6727 23.1554 17.9181C25.119 19.4727 27.9008 19.3908 29.7826 17.7545C30.1099 17.4272 30.6826 17.509 30.9281 17.8363C31.2554 18.1636 31.1735 18.7363 30.8463 18.9818C29.619 20.1272 28.0645 20.6999 26.4281 20.6999Z" fill="#00538E"/>
</g>
<g id="Group_22">
<path id="Vector_21" d="M33.2192 34.3636H19.392C18.1647 34.3636 17.1829 33.4636 17.0192 32.2363L16.2011 24.9545C16.1192 24.2182 16.3647 23.5636 16.8556 22.9909C17.2647 22.5 17.9192 22.2545 18.5738 22.2545H34.1192C34.8556 22.2545 35.5101 22.5818 36.0011 23.0727C36.4101 23.5636 36.6556 24.3 36.492 24.9545L35.6738 32.1545V32.2363C35.4283 33.5454 34.3647 34.3636 33.2192 34.3636ZM18.5738 23.8909C18.4101 23.8909 18.1647 23.9727 18.0829 24.1363C17.9192 24.3 17.8374 24.5454 17.8374 24.7909L18.6556 32.0727C18.6556 32.4818 18.9829 32.7272 19.392 32.7272H33.2192C33.6283 32.7272 33.9556 32.4 34.0374 31.9909L34.8556 24.7909C34.9374 24.4636 34.7738 24.3 34.692 24.1363C34.5283 23.9727 34.3647 23.8909 34.1192 23.8909H18.5738Z" fill="#00538E"/>
</g>
<g id="Group_23">
<path id="Vector_22" d="M26.5921 29.1272H26.0194C25.5284 29.1272 25.2012 28.7999 25.2012 28.309C25.2012 27.8181 25.5284 27.4908 26.0194 27.4908H26.5921C27.083 27.4908 27.4103 27.8181 27.4103 28.309C27.4103 28.7999 27.083 29.1272 26.5921 29.1272Z" fill="#00538E"/>
</g>
<g id="Group_24">
<path id="Vector_23" d="M17.9185 51.0545H4.09118C2.86391 51.0545 1.88209 50.1545 1.71845 48.9273L0.90027 41.6454C0.818452 40.9091 1.06391 40.2545 1.55482 39.6818C1.96391 39.1909 2.61845 38.9454 3.273 38.9454H18.8185C19.5548 38.9454 20.2094 39.2727 20.7003 39.7636C21.1094 40.2545 21.3548 40.9909 21.1912 41.6454L20.373 48.8454C20.1275 50.2363 19.1457 51.0545 17.9185 51.0545ZM3.273 40.5818C3.10936 40.5818 2.86391 40.6636 2.78209 40.8273C2.61845 40.9909 2.53663 41.2363 2.53663 41.4818L3.35482 48.7636C3.35482 49.1727 3.68209 49.4182 4.09118 49.4182H17.9185C18.3275 49.4182 18.6548 49.0909 18.7366 48.6818L19.5548 41.4818C19.6366 41.1545 19.473 40.9909 19.3912 40.8273C19.2275 40.6636 19.0639 40.5818 18.8185 40.5818H3.273Z" fill="#00538E"/>
</g>
<g id="Group_25">
<path id="Vector_24" d="M10.4729 45.8181H9.90021C9.4093 45.8181 9.08203 45.4909 9.08203 44.9999C9.08203 44.509 9.4093 44.1818 9.90021 44.1818H10.4729C10.9638 44.1818 11.2911 44.509 11.2911 44.9999C11.2911 45.4909 10.9638 45.8181 10.4729 45.8181Z" fill="#00538E"/>
</g>
<g id="Group_26">
<path id="Vector_25" d="M49.9087 51.0545H36.0814C34.8541 51.0545 33.8723 50.1545 33.7087 48.9273L32.8905 41.6454C32.8087 40.9091 33.0541 40.2545 33.545 39.6818C33.9541 39.1909 34.6087 38.9454 35.2632 38.9454H50.8087C51.545 38.9454 52.1996 39.2727 52.6905 39.7636C53.0996 40.2545 53.3451 40.9909 53.1814 41.6454L52.3632 48.8454C52.1178 50.2363 51.136 51.0545 49.9087 51.0545ZM35.2632 40.5818C35.0996 40.5818 34.8541 40.6636 34.7723 40.8273C34.6087 40.9909 34.5269 41.2363 34.5269 41.4818L35.3451 48.7636C35.3451 49.1727 35.6723 49.4182 36.0814 49.4182H49.9087C50.3178 49.4182 50.6451 49.0909 50.7269 48.6818L51.5451 41.4818C51.6269 41.1545 51.4632 40.9909 51.3814 40.8273C51.2178 40.6636 51.0541 40.5818 50.8087 40.5818H35.2632Z" fill="#00538E"/>
</g>
<g id="Group_27">
<path id="Vector_26" d="M43.2815 45.8181H42.7088C42.2179 45.8181 41.8906 45.4909 41.8906 44.9999C41.8906 44.509 42.2179 44.1818 42.7088 44.1818H43.2815C43.7724 44.1818 44.0997 44.509 44.0997 44.9999C44.0997 45.4909 43.7724 45.8181 43.2815 45.8181Z" fill="#00538E"/>
</g>
</g>
</g>
</svg>
