<svg xmlns="http://www.w3.org/2000/svg" width="184" height="184" viewBox="0 0 184 184" fill="none">
  <path d="M1.00002 1L183 1L183 183L1.00001 183L1.00002 1Z" stroke="#E0E0E0" stroke-width="1.5" stroke-linecap="square" stroke-linejoin="round" stroke-dasharray="3 3"/>
  <mask id="path-2-inside-1_389_3688" fill="white">
    <path fill-rule="evenodd" clip-rule="evenodd" d="M93.7931 80H91.2069V91.2069H80L80 93.7931L91.2069 93.7931V105H93.7931V93.7931L105 93.7931V91.2069H93.7931V80Z"/>
  </mask>
  <path fill-rule="evenodd" clip-rule="evenodd" d="M93.7931 80H91.2069V91.2069H80L80 93.7931L91.2069 93.7931V105H93.7931V93.7931L105 93.7931V91.2069H93.7931V80Z" fill="#E0E0E0"/>
  <path d="M91.2069 80V79.5H90.7069V80H91.2069ZM93.7931 80H94.2931V79.5H93.7931V80ZM91.2069 91.2069V91.7069H91.7069V91.2069H91.2069ZM80 91.2069V90.7069H79.5L79.5 91.2069H80ZM80 93.7931H79.5V94.2931H80L80 93.7931ZM91.2069 93.7931H91.7069V93.2931H91.2069V93.7931ZM91.2069 105H90.7069V105.5H91.2069V105ZM93.7931 105V105.5H94.2931V105H93.7931ZM93.7931 93.7931V93.2931H93.2931V93.7931H93.7931ZM105 93.7931V94.2931H105.5V93.7931H105ZM105 91.2069H105.5V90.7069H105V91.2069ZM93.7931 91.2069H93.2931V91.7069H93.7931V91.2069ZM91.2069 80.5H93.7931V79.5H91.2069V80.5ZM91.7069 91.2069V80H90.7069V91.2069H91.7069ZM80 91.7069H91.2069V90.7069H80V91.7069ZM80.5 93.7931L80.5 91.2069H79.5L79.5 93.7931H80.5ZM91.2069 93.2931L80 93.2931L80 94.2931L91.2069 94.2931V93.2931ZM91.7069 105V93.7931H90.7069V105H91.7069ZM93.7931 104.5H91.2069V105.5H93.7931V104.5ZM93.2931 93.7931V105H94.2931V93.7931H93.2931ZM105 93.2931L93.7931 93.2931V94.2931L105 94.2931V93.2931ZM104.5 91.2069V93.7931H105.5V91.2069H104.5ZM93.7931 91.7069H105V90.7069H93.7931V91.7069ZM93.2931 80V91.2069H94.2931V80H93.2931Z" fill="white" mask="url(#path-2-inside-1_389_3688)"/>
</svg>