<svg width="24" height="24" viewBox="0 0 24 24" fill="none" xmlns="http://www.w3.org/2000/svg">
<path d="M12 15.8471C12.2637 15.8396 12.5048 15.7416 12.7006 15.5307L18.4261 9.66965C18.5918 9.50391 18.6822 9.29298 18.6822 9.04437C18.6822 8.54716 18.2905 8.14789 17.7933 8.14789C17.5522 8.14789 17.3186 8.24582 17.1454 8.41909L12.0075 13.7001L6.85464 8.41909C6.68137 8.25336 6.45537 8.14789 6.20676 8.14789C5.70955 8.14789 5.31781 8.54716 5.31781 9.04437C5.31781 9.29298 5.40821 9.50391 5.57395 9.66965L11.3069 15.5307C11.5103 15.7416 11.7363 15.8471 12 15.8471Z" fill="#BDBDBD"/>
</svg>
