<svg width="54" height="54" viewBox="0 0 54 54" fill="none" xmlns="http://www.w3.org/2000/svg">
<g clip-path="url(#clip0_3224_17642)">
<path d="M38.3726 26.8999H30.4109C29.9449 26.8999 29.5671 27.2777 29.5671 27.7437V53.1561C29.5671 53.6221 29.9449 53.9999 30.4109 53.9999H38.3726C38.8386 53.9999 39.2163 53.6221 39.2163 53.1561V27.7437C39.2163 27.2777 38.8387 26.8999 38.3726 26.8999ZM37.5288 52.3124H31.2546V28.5874H37.5288V52.3124ZM23.5889 30.2184H15.6272C15.1612 30.2184 14.7835 30.5962 14.7835 31.0621V53.1562C14.7835 53.6222 15.1612 54 15.6272 54H23.5889C24.0549 54 24.4327 53.6222 24.4327 53.1562V31.0621C24.4327 30.5961 24.055 30.2184 23.5889 30.2184ZM22.7452 52.3125H16.4709V31.9059H22.7452V52.3125ZM8.80548 16.4561H0.84375C0.377789 16.4561 0 16.8339 0 17.2998V53.156C0 53.622 0.377789 53.9998 0.84375 53.9998H8.80548C9.27144 53.9998 9.64923 53.622 9.64923 53.156V17.2998C9.64923 16.8338 9.27144 16.4561 8.80548 16.4561ZM7.96173 52.3123H1.6875V18.1436H7.96173V52.3123ZM53.1562 36.7574H45.1946C44.7287 36.7574 44.3509 37.1352 44.3509 37.6012V53.156C44.3509 53.622 44.7287 53.9998 45.1946 53.9998H53.1562C53.6222 53.9998 54 53.622 54 53.156V37.6012C54 37.1351 53.6222 36.7574 53.1562 36.7574ZM52.3125 52.3123H46.0384V38.4449H52.3125V52.3123ZM44.6261 29.788C44.1621 29.746 43.8198 29.3357 43.8619 28.8716C43.9039 28.4076 44.3154 28.0653 44.7782 28.1074L46.3903 28.2533L34.2263 18.7817L19.8681 23.4352C19.5652 23.5333 19.233 23.4527 19.0088 23.2265L4.2255 8.31695C3.89739 7.98599 3.89971 7.45179 4.23056 7.12378C4.56142 6.79577 5.09572 6.79788 5.42373 7.12884L19.8416 21.6699L34.1316 17.0384C34.3977 16.9521 34.6893 17.0034 34.9102 17.1753L47.5894 27.0481L46.9184 24.8513C46.7822 24.4056 47.0332 23.934 47.4789 23.7979C47.9246 23.6616 48.3961 23.9126 48.5323 24.3583L49.9825 29.106C50.0645 29.3746 50.0075 29.6665 49.8304 29.8845C49.6693 30.0826 49.4282 30.1962 49.1756 30.1962C49.1503 30.1962 49.125 30.1951 49.0995 30.1928L44.6261 29.788ZM24.7489 11.0433C24.8769 10.8953 24.9218 10.7297 24.8947 10.5063C24.8474 10.1162 24.6042 9.63752 23.131 9.39579C20.786 9.01072 20.2378 7.77684 20.1909 6.8097C20.127 5.49471 21.0195 4.39383 22.4169 4.04747V3.68856C22.4169 3.2226 22.7946 2.84481 23.2606 2.84481C23.7266 2.84481 24.1044 3.2226 24.1044 3.68856V4.03787C25.0103 4.25166 25.8678 4.83532 26.3193 5.91089C26.4997 6.34057 26.2977 6.83511 25.868 7.01546C25.4381 7.19582 24.9438 6.99374 24.7634 6.56416C24.4134 5.73064 23.5553 5.51686 22.8598 5.67443C22.689 5.71324 21.8384 5.94612 21.8763 6.72775C21.8863 6.9351 21.913 7.48554 23.4043 7.73044C25.336 8.04748 26.4011 8.91295 26.5698 10.3028C26.6544 10.9995 26.466 11.6373 26.025 12.1472C25.5848 12.656 24.8951 13.0149 24.1042 13.1644V13.4935C24.1042 13.9594 23.7265 14.3372 23.2605 14.3372C22.7945 14.3372 22.4167 13.9594 22.4167 13.4935V13.1505C21.1875 12.8825 20.2466 12.0427 19.9565 10.879C19.8437 10.4269 20.1189 9.96891 20.571 9.85616C21.0236 9.74331 21.4811 10.0186 21.5939 10.4707C21.7998 11.2963 22.6635 11.5698 23.3416 11.5541C23.9313 11.5401 24.4968 11.3348 24.7489 11.0433ZM23.2605 17.182C27.9976 17.182 31.8516 13.3281 31.8516 8.59096C31.8516 3.85383 27.9976 0 23.2605 0C18.5234 0 14.6694 3.85393 14.6694 8.59106C14.6694 13.3282 18.5235 17.182 23.2605 17.182ZM23.2605 1.6875C27.0672 1.6875 30.1641 4.78438 30.1641 8.59106C30.1641 12.3977 27.0672 15.4946 23.2605 15.4946C19.4538 15.4946 16.3569 12.3977 16.3569 8.59106C16.3569 4.78438 19.4539 1.6875 23.2605 1.6875Z" fill="#00538E"/>
</g>
<defs>
<clipPath id="clip0_3224_17642">
<rect width="54" height="54" fill="white"/>
</clipPath>
</defs>
</svg>
