<svg width="150" height="48" viewBox="0 0 150 48" fill="none" xmlns="http://www.w3.org/2000/svg">
<path d="M51 1H59C60.1046 1 61 1.89543 61 3V47H69V14C69 12.8954 69.8954 12 71 12H79C80.1046 12 81 12.8954 81 14V47H89V7C89 5.89543 89.8954 5 91 5H99C100.105 5 101 5.89543 101 7V47H109V31C109 29.8954 109.895 29 111 29H119C120.105 29 121 29.8954 121 31V47H129V22C129 20.8954 129.895 20 131 20H139C140.105 20 141 20.8954 141 22V47H129H121H109H101H89H81H69H61H49H41H29H21H9V24C9 22.8954 9.89543 22 11 22H19C20.1046 22 21 22.8954 21 24V47H29V12C29 10.8954 29.8954 10 31 10H39C40.1046 10 41 10.8954 41 12V47H49V3C49 1.89543 49.8954 1 51 1Z" fill="#00538E"/>
<path d="M1 47H9M149 47H141M49 47H61M49 47V3C49 1.89543 49.8954 1 51 1H59C60.1046 1 61 1.89543 61 3V47M49 47H41M61 47H69M41 47V12C41 10.8954 40.1046 10 39 10H31C29.8954 10 29 10.8954 29 12V47M41 47H29M29 47H21M21 47V24C21 22.8954 20.1046 22 19 22H11C9.89543 22 9 22.8954 9 24V47M21 47H9M69 47V14C69 12.8954 69.8954 12 71 12H79C80.1046 12 81 12.8954 81 14V47M69 47H81M81 47H89M89 47V7C89 5.89543 89.8954 5 91 5H99C100.105 5 101 5.89543 101 7V47M89 47H101M101 47H109M109 47V31C109 29.8954 109.895 29 111 29H119C120.105 29 121 29.8954 121 31V47M109 47H121M121 47H129M129 47V22C129 20.8954 129.895 20 131 20H139C140.105 20 141 20.8954 141 22V47M129 47H141" stroke="#00538E" stroke-width="2" stroke-linecap="round"/>
</svg>
