<svg xmlns="http://www.w3.org/2000/svg" width="20" height="25" viewBox="0 0 20 25" fill="none">
  <path d="M19 4.5H15.9C15.6679 3.37141 15.0538 2.35735 14.1613 1.62872C13.2687 0.90009 12.1522 0.501455 11 0.5L9 0.5C7.8478 0.501455 6.73132 0.90009 5.83875 1.62872C4.94618 2.35735 4.3321 3.37141 4.1 4.5H1C0.734784 4.5 0.48043 4.60536 0.292893 4.79289C0.105357 4.98043 0 5.23478 0 5.5C0 5.76522 0.105357 6.01957 0.292893 6.20711C0.48043 6.39464 0.734784 6.5 1 6.5H2V19.5C2.00159 20.8256 2.52888 22.0964 3.46622 23.0338C4.40356 23.9711 5.67441 24.4984 7 24.5H13C14.3256 24.4984 15.5964 23.9711 16.5338 23.0338C17.4711 22.0964 17.9984 20.8256 18 19.5V6.5H19C19.2652 6.5 19.5196 6.39464 19.7071 6.20711C19.8946 6.01957 20 5.76522 20 5.5C20 5.23478 19.8946 4.98043 19.7071 4.79289C19.5196 4.60536 19.2652 4.5 19 4.5ZM9 2.5H11C11.6203 2.50076 12.2251 2.69338 12.7316 3.05144C13.2381 3.40951 13.6214 3.91549 13.829 4.5H6.171C6.37858 3.91549 6.7619 3.40951 7.26839 3.05144C7.77487 2.69338 8.37973 2.50076 9 2.5ZM16 19.5C16 20.2956 15.6839 21.0587 15.1213 21.6213C14.5587 22.1839 13.7956 22.5 13 22.5H7C6.20435 22.5 5.44129 22.1839 4.87868 21.6213C4.31607 21.0587 4 20.2956 4 19.5V6.5H16V19.5Z" fill="#00538E"/>
  <path d="M8 18.4993C8.26521 18.4993 8.51957 18.3939 8.7071 18.2064C8.89464 18.0188 9 17.7645 9 17.4993V11.4993C9 11.234 8.89464 10.9797 8.7071 10.7922C8.51957 10.6046 8.26521 10.4993 8 10.4993C7.73478 10.4993 7.48043 10.6046 7.29289 10.7922C7.10536 10.9797 7 11.234 7 11.4993V17.4993C7 17.7645 7.10536 18.0188 7.29289 18.2064C7.48043 18.3939 7.73478 18.4993 8 18.4993Z" fill="#00538E"/>
  <path d="M12 18.4993C12.2652 18.4993 12.5196 18.3939 12.7071 18.2064C12.8947 18.0188 13 17.7645 13 17.4993V11.4993C13 11.234 12.8947 10.9797 12.7071 10.7922C12.5196 10.6046 12.2652 10.4993 12 10.4993C11.7348 10.4993 11.4804 10.6046 11.2929 10.7922C11.1054 10.9797 11 11.234 11 11.4993V17.4993C11 17.7645 11.1054 18.0188 11.2929 18.2064C11.4804 18.3939 11.7348 18.4993 12 18.4993Z" fill="#00538E"/>
</svg>