<svg width="23" height="23" viewBox="0 0 23 23" fill="none" xmlns="http://www.w3.org/2000/svg">
<path d="M22.0417 10.5417H12.4583V0.958333C12.4583 0.704167 12.3574 0.460412 12.1776 0.280689C11.9979 0.100967 11.7542 0 11.5 0V0C11.2458 0 11.0021 0.100967 10.8224 0.280689C10.6426 0.460412 10.5417 0.704167 10.5417 0.958333V10.5417H0.958333C0.704167 10.5417 0.460412 10.6426 0.280689 10.8224C0.100967 11.0021 0 11.2458 0 11.5H0C0 11.7542 0.100967 11.9979 0.280689 12.1776C0.460412 12.3574 0.704167 12.4583 0.958333 12.4583H10.5417V22.0417C10.5417 22.2958 10.6426 22.5396 10.8224 22.7193C11.0021 22.899 11.2458 23 11.5 23C11.7542 23 11.9979 22.899 12.1776 22.7193C12.3574 22.5396 12.4583 22.2958 12.4583 22.0417V12.4583H22.0417C22.2958 12.4583 22.5396 12.3574 22.7193 12.1776C22.899 11.9979 23 11.7542 23 11.5C23 11.2458 22.899 11.0021 22.7193 10.8224C22.5396 10.6426 22.2958 10.5417 22.0417 10.5417Z" fill="#333333"/>
</svg>
