<svg width="17" height="22" viewBox="0 0 17 22" fill="none" xmlns="http://www.w3.org/2000/svg">
<path d="M16.15 4.01568H13.515C13.3177 3.03201 12.7957 2.14815 12.0371 1.51308C11.2784 0.878013 10.3294 0.530565 9.35 0.529297L7.65 0.529297C6.67063 0.530565 5.72162 0.878013 4.96294 1.51308C4.20425 2.14815 3.68228 3.03201 3.485 4.01568H0.85C0.624566 4.01568 0.408365 4.10751 0.248959 4.27096C0.0895533 4.43442 0 4.65611 0 4.88727C0 5.11843 0.0895533 5.34013 0.248959 5.50358C0.408365 5.66704 0.624566 5.75887 0.85 5.75887H1.7V17.0896C1.70135 18.245 2.14955 19.3527 2.94629 20.1696C3.74302 20.9866 4.82324 21.4462 5.95 21.4476H11.05C12.1768 21.4462 13.257 20.9866 14.0537 20.1696C14.8505 19.3527 15.2987 18.245 15.3 17.0896V5.75887H16.15C16.3754 5.75887 16.5916 5.66704 16.751 5.50358C16.9104 5.34013 17 5.11843 17 4.88727C17 4.65611 16.9104 4.43442 16.751 4.27096C16.5916 4.10751 16.3754 4.01568 16.15 4.01568ZM7.65 2.27249H9.35C9.87723 2.27315 10.3914 2.44103 10.8219 2.75312C11.2524 3.06521 11.5782 3.50622 11.7547 4.01568H5.24535C5.4218 3.50622 5.74762 3.06521 6.17813 2.75312C6.60864 2.44103 7.12277 2.27315 7.65 2.27249ZM13.6 17.0896C13.6 17.7831 13.3313 18.4482 12.8531 18.9385C12.3749 19.4289 11.7263 19.7044 11.05 19.7044H5.95C5.2737 19.7044 4.6251 19.4289 4.14688 18.9385C3.66866 18.4482 3.4 17.7831 3.4 17.0896V5.75887H13.6V17.0896Z" fill="#333333"/>
<path d="M7 16.467C7.26522 16.467 7.51957 16.3752 7.70711 16.2118C7.89464 16.0483 8 15.8266 8 15.5954V10.3659C8 10.1347 7.89464 9.91302 7.70711 9.74956C7.51957 9.58611 7.26522 9.49428 7 9.49428C6.73478 9.49428 6.48043 9.58611 6.29289 9.74956C6.10536 9.91302 6 10.1347 6 10.3659V15.5954C6 15.8266 6.10536 16.0483 6.29289 16.2118C6.48043 16.3752 6.73478 16.467 7 16.467Z" fill="#333333"/>
<path d="M10 16.467C10.2652 16.467 10.5196 16.3752 10.7071 16.2118C10.8946 16.0483 11 15.8266 11 15.5954V10.3659C11 10.1347 10.8946 9.91302 10.7071 9.74956C10.5196 9.58611 10.2652 9.49428 10 9.49428C9.73478 9.49428 9.48043 9.58611 9.29289 9.74956C9.10536 9.91302 9 10.1347 9 10.3659V15.5954C9 15.8266 9.10536 16.0483 9.29289 16.2118C9.48043 16.3752 9.73478 16.467 10 16.467Z" fill="#333333"/>
</svg>
