<svg width="28" height="28" viewBox="0 0 28 28" fill="none" xmlns="http://www.w3.org/2000/svg">
<g clip-path="url(#clip0_677_1146)">
<path d="M7.13574 22.7861C6.42383 22.7861 6.01074 22.3115 6.01074 21.5381V19.2793H4.90332C2.60059 19.2793 1.08887 17.8818 1.08887 15.5264V7.2998C1.08887 4.90918 2.62695 3.49414 4.96484 3.49414H17.7705C20.1787 3.49414 21.6377 4.90918 21.6377 7.2998V7.88867H23.1582C25.4082 7.88867 26.9111 9.25977 26.9111 11.5801V16.9238C26.9111 19.209 25.4346 20.5713 23.2197 20.5713H22.8242V22.584C22.8242 23.3486 22.4111 23.8408 21.7168 23.8408C21.2422 23.8408 20.8467 23.5684 20.2666 23.0762L17.3398 20.5713H14.3428C13.1211 20.5713 12.1455 20.2021 11.5039 19.5254L8.66504 22.0566C8.05859 22.5752 7.62793 22.7861 7.13574 22.7861ZM7.56641 18.4443V20.9053L10.6953 17.9873C10.6162 17.6621 10.5811 17.3105 10.5811 16.9326V11.5801C10.5811 9.25977 12.0049 7.88867 14.3428 7.88867H19.915V7.48438C19.915 5.94629 19.0361 5.12012 17.5684 5.12012H5.1582C3.69922 5.12012 2.81152 5.94629 2.81152 7.48438V15.2979C2.81152 16.8271 3.69043 17.6533 5.1582 17.6533H6.81055C7.24121 17.6533 7.56641 17.917 7.56641 18.4443ZM21.2773 21.96V19.7451C21.2773 19.2178 21.6025 18.9629 22.0332 18.9629H22.9736C24.3623 18.9629 25.2148 18.1807 25.2148 16.7217V11.7383C25.2148 10.2793 24.3711 9.48828 22.9736 9.48828H14.5186C13.1299 9.48828 12.2861 10.2793 12.2861 11.7383L12.2773 16.7217C12.2773 18.1895 13.1299 18.9629 14.5186 18.9629H17.3047C17.8145 18.9629 18.1309 19.1123 18.5088 19.4551L21.2773 21.96Z" fill="#333333"/>
</g>
<defs>
<clipPath id="clip0_677_1146">
<rect width="28" height="28" fill="white"/>
</clipPath>
</defs>
</svg>
