<svg width="28" height="28" viewBox="0 0 28 28" fill="none" xmlns="http://www.w3.org/2000/svg">
<g id="Frame">
<path id="Vector" d="M7.05741 11.7239C6.42744 11.094 6.87363 10.0168 7.76454 10.0168L12.8337 10.0169L12.8338 4.49983C12.8338 3.94754 13.2816 3.49983 13.8338 3.49985L14.1672 3.49987C14.7195 3.4999 15.1671 3.94761 15.1671 4.49989L15.167 10.0169L20.236 10.017C21.1269 10.017 21.573 11.0942 20.9431 11.7241L14.7074 17.9597C14.3168 18.3502 13.6837 18.3502 13.2931 17.9597L7.05741 11.7239ZM22.1669 22.3333C22.1669 22.8855 21.7192 23.3333 21.1669 23.3333L6.83356 23.3333C6.28128 23.3333 5.83356 22.8855 5.83356 22.3333L5.83356 21.9999C5.83356 21.4476 6.28128 20.9999 6.83356 20.9999L21.1669 20.9999C21.7192 20.9999 22.1669 21.4476 22.1669 21.9999L22.1669 22.3333Z" fill="white"/>
</g>
</svg>
