<svg width="19" height="20" viewBox="0 0 19 20" fill="none" xmlns="http://www.w3.org/2000/svg">
<path d="M14.7695 1.25455L5.11751 10.869C4.74887 11.2342 4.45661 11.6687 4.25767 12.1472C4.05872 12.6257 3.95704 13.1387 3.95851 13.6566V14.7157C3.95851 14.9249 4.04192 15.1254 4.19039 15.2733C4.33885 15.4212 4.54021 15.5043 4.75018 15.5043H5.81339C6.33332 15.5058 6.84839 15.4045 7.32876 15.2063C7.80913 15.0081 8.24527 14.717 8.61193 14.3498L18.2639 4.73537C18.7266 4.27339 18.9864 3.64749 18.9864 2.99496C18.9864 2.34242 18.7266 1.71653 18.2639 1.25455C17.7934 0.80655 17.1676 0.556534 16.5167 0.556534C15.8658 0.556534 15.24 0.80655 14.7695 1.25455ZM17.1445 3.62031L7.49251 13.2347C7.04611 13.6767 6.44276 13.9255 5.81339 13.9271H5.54184V13.6566C5.54349 13.0297 5.79325 12.4287 6.23693 11.984L15.8889 2.36961C16.058 2.2087 16.2829 2.11891 16.5167 2.11891C16.7506 2.11891 16.9754 2.2087 17.1445 2.36961C17.3107 2.53562 17.404 2.76051 17.404 2.99496C17.404 3.22941 17.3107 3.4543 17.1445 3.62031Z" fill="#333333"/>
<path d="M18.2083 7.60223C17.9984 7.60223 17.797 7.68531 17.6485 7.8332C17.5001 7.98109 17.4167 8.18167 17.4167 8.39081V12.3503H14.25C13.6201 12.3503 13.016 12.5995 12.5706 13.0432C12.1252 13.4869 11.875 14.0886 11.875 14.7161V17.8704H3.95833C3.32844 17.8704 2.72435 17.6212 2.27895 17.1775C1.83355 16.7338 1.58333 16.1321 1.58333 15.5046V4.46444C1.58333 3.83701 1.83355 3.23527 2.27895 2.7916C2.72435 2.34793 3.32844 2.09869 3.95833 2.09869H11.1166C11.3265 2.09869 11.5279 2.0156 11.6764 1.86771C11.8248 1.71983 11.9082 1.51925 11.9082 1.3101C11.9082 1.10095 11.8248 0.900375 11.6764 0.752486C11.5279 0.604598 11.3265 0.521515 11.1166 0.521515H3.95833C2.9089 0.522767 1.90282 0.938584 1.16076 1.67775C0.418698 2.41693 0.00125705 3.4191 0 4.46444L0 15.5046C0.00125705 16.55 0.418698 17.5522 1.16076 18.2913C1.90282 19.0305 2.9089 19.4463 3.95833 19.4476H12.9382C13.4583 19.4491 13.9734 19.3478 14.4539 19.1496C14.9345 18.9514 15.3707 18.6603 15.7375 18.2931L17.8402 16.197C18.2089 15.8318 18.5013 15.3974 18.7003 14.9189C18.8994 14.4404 19.0013 13.9273 19 13.4094V8.39081C19 8.18167 18.9166 7.98109 18.7681 7.8332C18.6196 7.68531 18.4183 7.60223 18.2083 7.60223ZM14.6181 17.178C14.2999 17.4942 13.8974 17.7132 13.4583 17.8089V14.7161C13.4583 14.5069 13.5417 14.3063 13.6902 14.1584C13.8387 14.0106 14.04 13.9275 14.25 13.9275H17.3573C17.2593 14.364 17.0398 14.7641 16.7239 15.082L14.6181 17.178Z" fill="#333333"/>
</svg>
