<svg width="16" height="16" viewBox="0 0 16 16" fill="none" xmlns="http://www.w3.org/2000/svg">
<g id="Icon/Lucide Icon">
<path id="Vector" d="M8 2H3.33333C2.97971 2 2.64057 2.14048 2.39052 2.39052C2.14048 2.64057 2 2.97971 2 3.33333V12.6667C2 13.0203 2.14048 13.3594 2.39052 13.6095C2.64057 13.8595 2.97971 14 3.33333 14H12.6667C13.0203 14 13.3594 13.8595 13.6095 13.6095C13.8595 13.3594 14 13.0203 14 12.6667V8" stroke="white" stroke-linecap="round" stroke-linejoin="round"/>
<path id="Vector_2" d="M12.333 1.66665C12.5982 1.40144 12.9579 1.25244 13.333 1.25244C13.7081 1.25244 14.0678 1.40144 14.333 1.66665C14.5982 1.93187 14.7472 2.29158 14.7472 2.66665C14.7472 3.04173 14.5982 3.40144 14.333 3.66665L7.99967 9.99999L5.33301 10.6667L5.99967 7.99999L12.333 1.66665Z" stroke="white" stroke-linecap="round" stroke-linejoin="round"/>
</g>
</svg>
