<svg width="14" height="15" viewBox="0 0 14 15" fill="none" xmlns="http://www.w3.org/2000/svg">
<path d="M10.883 1.04222L3.771 8.15421C3.49937 8.42438 3.28402 8.74574 3.13743 9.0997C2.99084 9.45366 2.91592 9.83318 2.917 10.2163V10.9997C2.917 11.1544 2.97846 11.3028 3.08786 11.4122C3.19725 11.5216 3.34563 11.583 3.50034 11.583H4.28375C4.66686 11.5841 5.04638 11.5092 5.40034 11.3626C5.7543 11.216 6.07567 11.0007 6.34583 10.729L13.4578 3.61705C13.7987 3.27531 13.9902 2.81233 13.9902 2.32963C13.9902 1.84694 13.7987 1.38395 13.4578 1.04222C13.1111 0.710821 12.65 0.525879 12.1704 0.525879C11.6908 0.525879 11.2297 0.710821 10.883 1.04222ZM12.633 2.79222L5.521 9.90421C5.19208 10.2311 4.74751 10.4152 4.28375 10.4164H4.08367V10.2163C4.08489 9.75254 4.26892 9.30797 4.59584 8.97904L11.7078 1.86705C11.8324 1.74802 11.9981 1.6816 12.1704 1.6816C12.3427 1.6816 12.5084 1.74802 12.633 1.86705C12.7555 1.98985 12.8242 2.1562 12.8242 2.32963C12.8242 2.50306 12.7555 2.66941 12.633 2.79222Z" fill="white"/>
<path d="M13.4167 5.73775C13.2619 5.73775 13.1136 5.7992 13.0042 5.9086C12.8948 6.018 12.8333 6.16637 12.8333 6.32108V9.24999H10.5C10.0359 9.24999 9.59074 9.43437 9.26256 9.76256C8.93437 10.0907 8.74999 10.5359 8.74999 11V13.3333H2.91666C2.45254 13.3333 2.00742 13.149 1.67923 12.8208C1.35104 12.4926 1.16667 12.0475 1.16667 11.5833V3.41666C1.16667 2.95254 1.35104 2.50742 1.67923 2.17923C2.00742 1.85104 2.45254 1.66667 2.91666 1.66667H8.19116C8.34587 1.66667 8.49424 1.60521 8.60364 1.49581C8.71304 1.38642 8.77449 1.23804 8.77449 1.08333C8.77449 0.928623 8.71304 0.78025 8.60364 0.670854C8.49424 0.561458 8.34587 0.5 8.19116 0.5H2.91666C2.1434 0.500926 1.40207 0.808514 0.855294 1.35529C0.308514 1.90207 0.00092625 2.6434 0 3.41666L0 11.5833C0.00092625 12.3566 0.308514 13.0979 0.855294 13.6447C1.40207 14.1915 2.1434 14.4991 2.91666 14.5H9.53341C9.91661 14.5011 10.2962 14.4262 10.6503 14.2796C11.0043 14.133 11.3258 13.9176 11.5961 13.646L13.1454 12.0955C13.4171 11.8253 13.6325 11.504 13.7792 11.15C13.9259 10.7961 14.0009 10.4166 14 10.0334V6.32108C14 6.16637 13.9385 6.018 13.8291 5.9086C13.7197 5.7992 13.5714 5.73775 13.4167 5.73775ZM10.7712 12.8212C10.5368 13.0551 10.2402 13.217 9.91666 13.2878V11C9.91666 10.8453 9.97812 10.6969 10.0875 10.5875C10.1969 10.4781 10.3453 10.4167 10.5 10.4167H12.7896C12.7174 10.7395 12.5557 11.0355 12.3229 11.2707L10.7712 12.8212Z" fill="white"/>
</svg>
