<svg xmlns="http://www.w3.org/2000/svg" width="23" height="23" viewBox="0 0 23 23" fill="none">
  <g clip-path="url(#clip0_50_3891)">
    <path d="M14.3754 23H8.62539V19.6334C7.6261 19.2798 6.70054 18.7451 5.8951 18.056L2.97794 19.7417L0.102936 14.7583L3.01914 13.0765C2.82758 12.0342 2.82758 10.9658 3.01914 9.92354L0.102936 8.24167L2.97794 3.25833L5.8951 4.94404C6.70054 4.25493 7.6261 3.72019 8.62539 3.36662V0H14.3754V3.36662C15.3747 3.72019 16.3003 4.25493 17.1057 4.94404L20.0229 3.25833L22.8979 8.24167L19.9816 9.92354C20.1732 10.9658 20.1732 12.0342 19.9816 13.0765L22.8979 14.7583L20.0229 19.7417L17.1057 18.0569C16.3002 18.7457 15.3746 19.2801 14.3754 19.6334V23ZM10.5421 21.0833H12.4587V18.1825L13.1784 17.9965C14.3591 17.6907 15.4338 17.068 16.2863 16.1958L16.8067 15.6659L19.3204 17.1177L20.2787 15.4579L17.7679 14.008L17.9653 13.293C18.2898 12.1171 18.2898 10.8752 17.9653 9.69929L17.7679 8.98438L20.2787 7.53442L19.3204 5.87458L16.8067 7.33029L16.2863 6.80417C15.4333 5.93337 14.3587 5.31206 13.1784 5.00729L12.4587 4.81754V1.91667H10.5421V4.81754L9.82235 5.00346C8.64167 5.30931 7.56702 5.93197 6.71448 6.80417L6.1941 7.33412L3.68039 5.87842L2.72206 7.53825L5.23289 8.98821L5.03548 9.70312C4.71095 10.8791 4.71095 12.1209 5.03548 13.2969L5.23289 14.0118L2.72206 15.4618L3.68039 17.1216L6.1941 15.6697L6.71448 16.1997C7.56748 17.0705 8.64209 17.6918 9.82235 17.9965L10.5421 18.1825V21.0833ZM11.5004 15.3333C10.7422 15.3333 10.0011 15.1085 9.37071 14.6873C8.74032 14.2661 8.24899 13.6674 7.95886 12.967C7.66872 12.2665 7.59281 11.4957 7.74072 10.7522C7.88863 10.0086 8.25372 9.32553 8.78982 8.78942C9.32592 8.25332 10.009 7.88823 10.7525 7.74032C11.4961 7.59241 12.2669 7.66833 12.9673 7.95846C13.6678 8.2486 14.2665 8.73993 14.6877 9.37031C15.1089 10.0007 15.3337 10.7418 15.3337 11.5C15.3337 12.5167 14.9299 13.4917 14.211 14.2106C13.4921 14.9295 12.5171 15.3333 11.5004 15.3333ZM11.5004 9.58333C11.1213 9.58333 10.7507 9.69574 10.4356 9.90635C10.1204 10.117 9.87469 10.4163 9.72962 10.7665C9.58456 11.1167 9.5466 11.5021 9.62055 11.8739C9.69451 12.2457 9.87706 12.5872 10.1451 12.8553C10.4132 13.1233 10.7547 13.3059 11.1265 13.3798C11.4983 13.4538 11.8836 13.4158 12.2339 13.2708C12.5841 13.1257 12.8834 12.88 13.094 12.5648C13.3046 12.2496 13.4171 11.8791 13.4171 11.5C13.4171 10.9917 13.2151 10.5042 12.8557 10.1447C12.4962 9.78527 12.0087 9.58333 11.5004 9.58333Z" fill="#333333"/>
  </g>
  <defs>
    <clipPath id="clip0_50_3891">
      <rect width="23" height="23" fill="white"/>
    </clipPath>
  </defs>
</svg>