<svg xmlns="http://www.w3.org/2000/svg" width="22" height="25" viewBox="0 0 22 25" fill="none">
  <path d="M13.0017 24.5C12.7853 24.5 12.5747 24.4298 12.4015 24.3L8.40022 21.3C8.27599 21.2069 8.17515 21.0861 8.1057 20.9472C8.03625 20.8084 8.0001 20.6552 8.0001 20.5V14.88L0.981853 6.987C0.483414 6.42488 0.157969 5.73082 0.0446334 4.98823C-0.0687023 4.24565 0.0348944 3.48615 0.342972 2.80101C0.65105 2.11588 1.1505 1.53426 1.78129 1.12607C2.41208 0.717873 3.14737 0.500474 3.89879 0.5H18.1033C18.8547 0.500881 19.5898 0.718639 20.2203 1.12711C20.8509 1.53557 21.35 2.11737 21.6577 2.80259C21.9655 3.4878 22.0688 4.24727 21.9551 4.98975C21.8415 5.73222 21.5158 6.4261 21.0173 6.988L14.002 14.88V23.5C14.002 23.7652 13.8966 24.0196 13.709 24.2071C13.5214 24.3946 13.267 24.5 13.0017 24.5ZM10.0007 20L12.0014 21.5V14.5C12.0016 14.2552 12.0916 14.0189 12.2545 13.836L19.5248 5.659C19.7672 5.38508 19.9254 5.04704 19.9804 4.68545C20.0353 4.32387 19.9847 3.9541 19.8347 3.62056C19.6846 3.28701 19.4414 3.00386 19.1343 2.80509C18.8272 2.60632 18.4692 2.50038 18.1033 2.5H3.89879C3.53312 2.50055 3.17538 2.60655 2.86846 2.80527C2.56154 3.00399 2.31849 3.28699 2.16844 3.62035C2.01839 3.95371 1.96772 4.32326 2.02251 4.68468C2.0773 5.0461 2.23522 5.38405 2.47733 5.658L9.74866 13.836C9.91112 14.019 10.0008 14.2553 10.0007 14.5V20Z" fill="#333333"/>
</svg>