<svg width="48" height="48" viewBox="0 0 48 48" fill="none" xmlns="http://www.w3.org/2000/svg">
<g id="folder.badge.plus">
<path id="folder.badge.plus_2" d="M39.6546 24.2358C43.8734 24.2358 47.4141 20.7101 47.4141 16.4763C47.4141 12.2123 43.9035 8.7168 39.6546 8.7168C35.4058 8.7168 31.8952 12.2274 31.8952 16.4763C31.8952 20.7402 35.4058 24.2358 39.6546 24.2358ZM11.6753 37.3139H36.6714C39.5793 37.3139 41.2668 35.6264 41.2668 32.4021V26.2397C40.4532 26.4205 39.2328 26.4355 38.2685 26.2397V32.1459C38.2685 33.5924 37.5001 34.3156 36.1139 34.3156H11.8712C10.485 34.3156 9.71659 33.5924 9.71659 32.1309V20.695H30.7802C30.3583 19.8814 30.0419 18.9925 29.8913 18.0583H9.71659V14.2916C9.71659 12.9205 10.485 12.1973 11.826 12.1973H14.6887C15.7584 12.1973 16.3913 12.4534 17.2501 13.1465L18.0938 13.8546C19.1485 14.6984 19.9621 14.9997 21.5442 14.9997H29.9063C30.0269 13.93 30.2679 12.9958 30.7802 11.9863H22.3427C21.2579 11.9863 20.61 11.7453 19.7663 11.0522L18.9225 10.3591C17.8527 9.48521 17.0693 9.19894 15.4872 9.19894H11.2233C8.39069 9.19894 6.71826 10.8563 6.71826 14.0354V32.4021C6.71826 35.6415 8.42083 37.3139 11.6753 37.3139ZM34.7277 16.4763C34.7277 15.8435 35.1496 15.4367 35.7674 15.4367H38.615V12.589C38.615 11.9863 39.0218 11.5645 39.6546 11.5645C40.2875 11.5494 40.6943 11.9713 40.6943 12.589V15.4367H43.5419C44.1597 15.4367 44.5665 15.8435 44.5665 16.4763C44.5665 17.1091 44.1597 17.5159 43.5419 17.5159H40.6943V20.3636C40.6943 20.9813 40.2875 21.4032 39.6546 21.4032C39.0218 21.4032 38.615 20.9813 38.615 20.3636V17.5159H35.7674C35.1496 17.5159 34.7277 17.1091 34.7277 16.4763Z" fill="#00538E"/>
</g>
</svg>
