<svg width="54" height="54" viewBox="0 0 54 54" fill="none" xmlns="http://www.w3.org/2000/svg">
<g clip-path="url(#clip0_3224_17657)">
<path d="M48.375 51.75H5.625C2.5245 51.75 0 49.2255 0 46.125V7.875C0 4.7745 2.5245 2.25 5.625 2.25H48.375C51.4755 2.25 54 4.7745 54 7.875V46.125C54 49.2255 51.4755 51.75 48.375 51.75ZM5.625 4.5C3.76425 4.5 2.25 6.01425 2.25 7.875V46.125C2.25 47.9857 3.76425 49.5 5.625 49.5H48.375C50.2357 49.5 51.75 47.9857 51.75 46.125V7.875C51.75 6.01425 50.2357 4.5 48.375 4.5H5.625Z" fill="#00538E"/>
<path d="M52.875 18H1.125C0.504 18 0 17.496 0 16.875C0 16.254 0.504 15.75 1.125 15.75H52.875C53.496 15.75 54 16.254 54 16.875C54 17.496 53.496 18 52.875 18Z" fill="#00538E"/>
<path d="M52.875 29.25H1.125C0.504 29.25 0 28.746 0 28.125C0 27.504 0.504 27 1.125 27H52.875C53.496 27 54 27.504 54 28.125C54 28.746 53.496 29.25 52.875 29.25Z" fill="#00538E"/>
<path d="M52.875 40.5H1.125C0.504 40.5 0 39.996 0 39.375C0 38.754 0.504 38.25 1.125 38.25H52.875C53.496 38.25 54 38.754 54 39.375C54 39.996 53.496 40.5 52.875 40.5Z" fill="#00538E"/>
<path d="M14.625 51.75C14.004 51.75 13.5 51.246 13.5 50.625V16.875C13.5 16.254 14.004 15.75 14.625 15.75C15.246 15.75 15.75 16.254 15.75 16.875V50.625C15.75 51.246 15.246 51.75 14.625 51.75Z" fill="#00538E"/>
<path d="M27 51.75C26.379 51.75 25.875 51.246 25.875 50.625V16.875C25.875 16.254 26.379 15.75 27 15.75C27.621 15.75 28.125 16.254 28.125 16.875V50.625C28.125 51.246 27.621 51.75 27 51.75Z" fill="#00538E"/>
<path d="M39.375 51.75C38.754 51.75 38.25 51.246 38.25 50.625V16.875C38.25 16.254 38.754 15.75 39.375 15.75C39.996 15.75 40.5 16.254 40.5 16.875V50.625C40.5 51.246 39.996 51.75 39.375 51.75Z" fill="#00538E"/>
</g>
<defs>
<clipPath id="clip0_3224_17657">
<rect width="54" height="54" fill="white"/>
</clipPath>
</defs>
</svg>
