<svg xmlns="http://www.w3.org/2000/svg" width="117" height="117" viewBox="0 0 117 117" fill="none">
  <mask id="path-1-inside-1_386_3470" fill="white">
    <path fill-rule="evenodd" clip-rule="evenodd" d="M87.75 40.7388C91.5297 41.8698 94.25 42.25 94.25 42.25V32.5H100.75C105.06 32.5 109.193 30.788 112.24 27.7405C115.288 24.693 117 20.5598 117 16.25C117 11.9402 115.288 7.80698 112.24 4.75951C109.193 1.71205 105.06 0 100.75 0H82.017C77.5038 0 73.1755 1.79286 69.9842 4.98416C66.7929 8.17547 65 12.5038 65 17.017C65 31.7005 79.131 38.1615 87.75 40.7388ZM110.5 16.25C110.5 18.8359 109.473 21.3158 107.644 23.1443C105.816 24.9728 103.336 26 100.75 26H87.75V33.9137C85.967 33.3083 84.2265 32.5841 82.5402 31.746C76.0955 28.5155 71.5 23.92 71.5 17.017C71.5 14.2277 72.608 11.5527 74.5804 9.58036C76.5527 7.60804 79.2277 6.5 82.017 6.5H100.75C103.336 6.5 105.816 7.52723 107.644 9.35571C109.473 11.1842 110.5 13.6641 110.5 16.25ZM28.6553 38.9772C24.3962 38.8298 20.3657 37.0144 17.4327 33.9226C14.4998 30.8308 12.8993 26.7102 12.9765 22.4493C13.0537 18.1884 14.8023 14.1285 17.8453 11.1449C20.8883 8.16134 24.9819 6.49314 29.2435 6.5H39.5427C43.7086 6.5 47.7038 8.15487 50.6495 11.1005C53.5951 14.0462 55.25 18.0414 55.25 22.2073C55.25 35.3438 43.4525 41.3498 35.75 43.875C32.019 45.097 29.25 45.5 29.25 45.5V39L28.6553 38.9772ZM35.75 32.7307L28.8925 32.4837C26.3155 32.4277 23.8657 31.3529 22.0795 29.4946C20.2933 27.6362 19.3163 25.1458 19.3623 22.5687C19.4082 19.9915 20.4736 17.5376 22.325 15.7442C24.1763 13.9507 26.6629 12.964 29.2402 13H39.5395C40.7489 12.9996 41.9465 13.2374 43.064 13.6999C44.1814 14.1624 45.1968 14.8406 46.0521 15.6956C46.9074 16.5506 47.5859 17.5658 48.0488 18.683C48.5117 19.8003 48.75 20.9979 48.75 22.2073C48.75 28.431 44.7948 32.5098 39.247 35.4022C38.077 36.0132 36.8908 36.5333 35.75 36.9753V32.7307ZM71.5 58.5C71.5 65.6825 65.6825 71.5 58.5 71.5C51.3175 71.5 45.5 65.6825 45.5 58.5C45.5 51.3175 51.3175 45.5 58.5 45.5C65.6825 45.5 71.5 51.3175 71.5 58.5ZM65 58.5C65 60.2239 64.3152 61.8772 63.0962 63.0962C61.8772 64.3152 60.2239 65 58.5 65C56.7761 65 55.1228 64.3152 53.9038 63.0962C52.6848 61.8772 52 60.2239 52 58.5C52 56.7761 52.6848 55.1228 53.9038 53.9038C55.1228 52.6848 56.7761 52 58.5 52C60.2239 52 61.8772 52.6848 63.0962 53.9038C64.3152 55.1228 65 56.7761 65 58.5ZM42.25 65C42.25 72.1825 36.4325 78 29.25 78C22.0675 78 16.25 72.1825 16.25 65C16.25 57.8175 22.0675 52 29.25 52C36.4325 52 42.25 57.8175 42.25 65ZM35.75 65C35.75 66.7239 35.0652 68.3772 33.8462 69.5962C32.6272 70.8152 30.9739 71.5 29.25 71.5C27.5261 71.5 25.8728 70.8152 24.6538 69.5962C23.4348 68.3772 22.75 66.7239 22.75 65C22.75 63.2761 23.4348 61.6228 24.6538 60.4038C25.8728 59.1848 27.5261 58.5 29.25 58.5C30.9739 58.5 32.6272 59.1848 33.8462 60.4038C35.0652 61.6228 35.75 63.2761 35.75 65ZM0 99.2712C0 89.4497 19.487 84.5 29.25 84.5C31.1513 84.5 33.423 84.6885 35.8475 85.0622C40.2025 81.8675 48.1877 78 58.5 78C68.809 78 76.7943 81.8675 81.1558 85.0622C83.3367 84.7105 85.541 84.5226 87.75 84.5C97.513 84.5 117 89.4497 117 99.2712V117H0V99.2712ZM50.869 97.5747C52 98.6277 52 99.177 52 99.2712V110.5H6.5V99.2712C6.5 99.1737 6.5 98.6277 7.631 97.5747C8.81075 96.473 10.7575 95.2998 13.403 94.2272C18.707 92.0823 25.1875 91 29.25 91C33.3125 91 39.793 92.0823 45.097 94.2272C47.7425 95.2998 49.6893 96.473 50.869 97.5747ZM71.9615 87.282C67.7131 85.4398 63.1306 84.4928 58.5 84.5C53.118 84.5 48.542 85.7545 45.0417 87.282C52.2405 89.7 58.5 93.704 58.5 99.2745C58.5 93.704 64.7595 89.7032 71.9615 87.282ZM110.5 99.2745C110.5 99.177 110.5 98.6277 109.369 97.5747C108.189 96.473 106.243 95.2998 103.597 94.2272C98.293 92.0823 91.8125 91 87.75 91C83.6875 91 77.207 92.0823 71.903 94.2272C69.2575 95.2998 67.3107 96.473 66.131 97.5747C65 98.6277 65 99.177 65 99.2712V110.5H110.5V99.2712V99.2745ZM87.75 78C94.9325 78 100.75 72.1825 100.75 65C100.75 57.8175 94.9325 52 87.75 52C80.5675 52 74.75 57.8175 74.75 65C74.75 72.1825 80.5675 78 87.75 78ZM87.75 71.5C89.4739 71.5 91.1272 70.8152 92.3462 69.5962C93.5652 68.3772 94.25 66.7239 94.25 65C94.25 63.2761 93.5652 61.6228 92.3462 60.4038C91.1272 59.1848 89.4739 58.5 87.75 58.5C86.0261 58.5 84.3728 59.1848 83.1538 60.4038C81.9348 61.6228 81.25 63.2761 81.25 65C81.25 66.7239 81.9348 68.3772 83.1538 69.5962C84.3728 70.8152 86.0261 71.5 87.75 71.5Z"/>
  </mask>
  <path fill-rule="evenodd" clip-rule="evenodd" d="M87.75 40.7388C91.5297 41.8698 94.25 42.25 94.25 42.25V32.5H100.75C105.06 32.5 109.193 30.788 112.24 27.7405C115.288 24.693 117 20.5598 117 16.25C117 11.9402 115.288 7.80698 112.24 4.75951C109.193 1.71205 105.06 0 100.75 0H82.017C77.5038 0 73.1755 1.79286 69.9842 4.98416C66.7929 8.17547 65 12.5038 65 17.017C65 31.7005 79.131 38.1615 87.75 40.7388ZM110.5 16.25C110.5 18.8359 109.473 21.3158 107.644 23.1443C105.816 24.9728 103.336 26 100.75 26H87.75V33.9137C85.967 33.3083 84.2265 32.5841 82.5402 31.746C76.0955 28.5155 71.5 23.92 71.5 17.017C71.5 14.2277 72.608 11.5527 74.5804 9.58036C76.5527 7.60804 79.2277 6.5 82.017 6.5H100.75C103.336 6.5 105.816 7.52723 107.644 9.35571C109.473 11.1842 110.5 13.6641 110.5 16.25ZM28.6553 38.9772C24.3962 38.8298 20.3657 37.0144 17.4327 33.9226C14.4998 30.8308 12.8993 26.7102 12.9765 22.4493C13.0537 18.1884 14.8023 14.1285 17.8453 11.1449C20.8883 8.16134 24.9819 6.49314 29.2435 6.5H39.5427C43.7086 6.5 47.7038 8.15487 50.6495 11.1005C53.5951 14.0462 55.25 18.0414 55.25 22.2073C55.25 35.3438 43.4525 41.3498 35.75 43.875C32.019 45.097 29.25 45.5 29.25 45.5V39L28.6553 38.9772ZM35.75 32.7307L28.8925 32.4837C26.3155 32.4277 23.8657 31.3529 22.0795 29.4946C20.2933 27.6362 19.3163 25.1458 19.3623 22.5687C19.4082 19.9915 20.4736 17.5376 22.325 15.7442C24.1763 13.9507 26.6629 12.964 29.2402 13H39.5395C40.7489 12.9996 41.9465 13.2374 43.064 13.6999C44.1814 14.1624 45.1968 14.8406 46.0521 15.6956C46.9074 16.5506 47.5859 17.5658 48.0488 18.683C48.5117 19.8003 48.75 20.9979 48.75 22.2073C48.75 28.431 44.7948 32.5098 39.247 35.4022C38.077 36.0132 36.8908 36.5333 35.75 36.9753V32.7307ZM71.5 58.5C71.5 65.6825 65.6825 71.5 58.5 71.5C51.3175 71.5 45.5 65.6825 45.5 58.5C45.5 51.3175 51.3175 45.5 58.5 45.5C65.6825 45.5 71.5 51.3175 71.5 58.5ZM65 58.5C65 60.2239 64.3152 61.8772 63.0962 63.0962C61.8772 64.3152 60.2239 65 58.5 65C56.7761 65 55.1228 64.3152 53.9038 63.0962C52.6848 61.8772 52 60.2239 52 58.5C52 56.7761 52.6848 55.1228 53.9038 53.9038C55.1228 52.6848 56.7761 52 58.5 52C60.2239 52 61.8772 52.6848 63.0962 53.9038C64.3152 55.1228 65 56.7761 65 58.5ZM42.25 65C42.25 72.1825 36.4325 78 29.25 78C22.0675 78 16.25 72.1825 16.25 65C16.25 57.8175 22.0675 52 29.25 52C36.4325 52 42.25 57.8175 42.25 65ZM35.75 65C35.75 66.7239 35.0652 68.3772 33.8462 69.5962C32.6272 70.8152 30.9739 71.5 29.25 71.5C27.5261 71.5 25.8728 70.8152 24.6538 69.5962C23.4348 68.3772 22.75 66.7239 22.75 65C22.75 63.2761 23.4348 61.6228 24.6538 60.4038C25.8728 59.1848 27.5261 58.5 29.25 58.5C30.9739 58.5 32.6272 59.1848 33.8462 60.4038C35.0652 61.6228 35.75 63.2761 35.75 65ZM0 99.2712C0 89.4497 19.487 84.5 29.25 84.5C31.1513 84.5 33.423 84.6885 35.8475 85.0622C40.2025 81.8675 48.1877 78 58.5 78C68.809 78 76.7943 81.8675 81.1558 85.0622C83.3367 84.7105 85.541 84.5226 87.75 84.5C97.513 84.5 117 89.4497 117 99.2712V117H0V99.2712ZM50.869 97.5747C52 98.6277 52 99.177 52 99.2712V110.5H6.5V99.2712C6.5 99.1737 6.5 98.6277 7.631 97.5747C8.81075 96.473 10.7575 95.2998 13.403 94.2272C18.707 92.0823 25.1875 91 29.25 91C33.3125 91 39.793 92.0823 45.097 94.2272C47.7425 95.2998 49.6893 96.473 50.869 97.5747ZM71.9615 87.282C67.7131 85.4398 63.1306 84.4928 58.5 84.5C53.118 84.5 48.542 85.7545 45.0417 87.282C52.2405 89.7 58.5 93.704 58.5 99.2745C58.5 93.704 64.7595 89.7032 71.9615 87.282ZM110.5 99.2745C110.5 99.177 110.5 98.6277 109.369 97.5747C108.189 96.473 106.243 95.2998 103.597 94.2272C98.293 92.0823 91.8125 91 87.75 91C83.6875 91 77.207 92.0823 71.903 94.2272C69.2575 95.2998 67.3107 96.473 66.131 97.5747C65 98.6277 65 99.177 65 99.2712V110.5H110.5V99.2712V99.2745ZM87.75 78C94.9325 78 100.75 72.1825 100.75 65C100.75 57.8175 94.9325 52 87.75 52C80.5675 52 74.75 57.8175 74.75 65C74.75 72.1825 80.5675 78 87.75 78ZM87.75 71.5C89.4739 71.5 91.1272 70.8152 92.3462 69.5962C93.5652 68.3772 94.25 66.7239 94.25 65C94.25 63.2761 93.5652 61.6228 92.3462 60.4038C91.1272 59.1848 89.4739 58.5 87.75 58.5C86.0261 58.5 84.3728 59.1848 83.1538 60.4038C81.9348 61.6228 81.25 63.2761 81.25 65C81.25 66.7239 81.9348 68.3772 83.1538 69.5962C84.3728 70.8152 86.0261 71.5 87.75 71.5Z" fill="#333333" stroke="white" stroke-width="3" mask="url(#path-1-inside-1_386_3470)"/>
</svg>