<svg xmlns="http://www.w3.org/2000/svg" width="125" height="108" viewBox="0 0 125 108" fill="none">
  <path fill-rule="evenodd" clip-rule="evenodd" d="M83.1461 0.261218C81.6713 0.622272 79.6713 1.96367 78.7786 3.19085C77.2253 5.32539 77.2096 5.49649 77.2096 20.136V34.4157L48.6747 34.4177L20.1397 34.4196C20.1397 34.4196 18.9457 34.4568 18.4349 34.928C17.9985 35.3306 17.7863 36.3034 17.7863 36.3034L17.6804 63.8121L17.5745 91.3209H15.0329H12.4912V62.1415L12.9437 33.5544C12.9437 33.5544 13.1638 31.8086 13.7282 31.1745C14.2575 30.5796 14.7159 30.0858 15.2486 29.8158C15.9958 29.4379 22.4763 29.3241 43.5619 29.3198C70.502 29.3139 70.9123 29.3021 71.3261 28.529C71.6242 27.9713 71.6242 27.5168 71.3261 26.9592C70.9123 26.1857 70.506 26.1743 43.758 26.1766C27.3533 26.1778 16.0664 26.3301 15.2368 26.5608C13.2486 27.1146 10.9544 29.1738 10.0974 31.1745C9.38901 32.8275 9.35332 34.3129 9.35332 62.116V91.3209L6.50963 91.3225C1.71066 91.3248 -0.343071 93.3275 0.046416 97.624C0.413154 101.672 2.67791 104.871 6.60769 106.891L8.76497 108H62.3048H115.845L118.002 106.891C121.932 104.871 124.196 101.672 124.563 97.624C124.953 93.3275 122.899 91.3248 118.1 91.3225L115.256 91.3209V85.1025C115.256 79.3826 115.193 78.8273 114.472 78.1738C113.715 77.4882 113.66 77.4882 112.903 78.1738C112.181 78.8273 112.118 79.3826 112.118 85.1025V91.3209H109.569H107.019V81.9021V72.4833L112.609 72.4794C117.69 72.4759 118.383 72.3895 120.232 71.5281C122.624 70.4135 124.047 68.5157 124.667 65.6111C124.949 64.2882 125.051 54.2721 124.977 35.0001L124.866 6.35557L123.945 4.48358C123.347 3.26974 122.382 2.16578 121.199 1.34399L119.375 0.0763749L101.92 0.00730388C92.3204 -0.0307637 83.8721 0.0838313 83.1461 0.261218ZM82.8523 3.77011C81.1469 4.54481 80.3475 5.95252 80.3475 8.18007V9.29894H100.99H121.632L121.448 7.38732C121.239 5.21118 120.415 4.14097 118.434 3.47067C117.512 3.15907 112.058 3.02249 100.783 3.02838C85.698 3.03623 84.344 3.09235 82.8523 3.77011ZM80.3475 34.0233V55.608H82.8378H85.3281L85.5661 51.6953C85.7525 48.6357 86.0266 47.3128 86.824 45.6268C87.9494 43.2466 90.5538 40.702 92.9448 39.6463C94.6789 38.881 94.7597 38.6389 93.7215 37.3183C92.4663 35.7218 91.9764 32.8514 92.5153 30.253C92.9103 28.35 93.299 27.6848 95.0288 25.9541C96.7256 24.2564 97.4551 23.8215 99.3018 23.4083C105.252 22.0759 110.573 26.1546 110.602 32.0693C110.614 34.714 110.356 35.7524 109.321 37.2233C108.302 38.6722 108.374 38.8794 110.176 39.6749C112.471 40.6882 115.054 43.3098 116.208 45.7967C117.065 47.6428 117.21 48.509 117.213 51.7816L117.217 55.608H119.375H121.532V34.0233V12.4385H100.94H80.3475V34.0233ZM98.853 26.8108C98.1364 27.177 97.0798 28.0941 96.504 28.8492C95.6395 29.983 95.463 30.6113 95.4881 32.4641C95.5395 36.2371 97.6862 38.3402 101.486 38.3402C105.237 38.3402 107.468 36.0691 107.468 32.249C107.468 29.9112 106.678 28.3822 104.855 27.1868C103.341 26.1943 100.417 26.0114 98.853 26.8108ZM20.7281 60.1212C20.7281 72.5324 20.8422 82.687 20.9815 82.687C21.1211 82.687 22.0683 81.9072 23.087 80.9539C25.713 78.4964 31.6322 75.65 34.1621 75.6288C35.3862 75.6182 35.0614 73.0559 33.6486 71.5791C32.264 70.1318 30.9261 67.7347 30.9261 66.7014C30.9261 66.2932 30.3503 65.6798 29.5741 65.2615C27.9711 64.3981 27.396 63.0092 27.396 60.0019C27.396 57.9917 27.5051 57.737 28.965 56.3478C29.8279 55.5264 30.5339 54.7038 30.5339 54.5197C30.5339 54.3357 30.0232 53.6956 29.3988 53.0971C27.9463 51.7047 27.2537 49.2071 27.4745 46.1562C27.7557 42.262 27.6914 42.2839 38.9065 42.2733C47.5976 42.2655 48.3362 42.3196 49.347 43.0394C49.9447 43.4656 50.6555 44.3486 50.9257 45.0016C51.2842 45.8674 51.6784 46.1892 52.3805 46.1892C52.9222 46.1892 53.8455 46.6911 54.4903 47.3363L55.6368 48.4835V56.1386C55.6368 64.0747 55.5964 64.2921 53.9251 65.3125C53.6525 65.4793 53.0245 66.6264 52.5303 67.8618C51.9996 69.1887 50.9261 70.8142 49.9079 71.8326C48.2228 73.519 47.6737 75.1065 48.6747 75.398C54.2063 77.0094 55.9322 77.7747 58.7747 79.8771C60.4511 81.1172 60.6362 81.304 62.142 83.2757C63.5462 85.1143 65.0504 88.2413 65.0504 89.3222C65.0504 91.4312 63.9667 91.3209 84.704 91.3209H103.881V81.9202V72.5194L93.3892 72.4033C81.283 72.269 79.7591 70.5907 78.4844 68.7813C77.2096 66.972 77.2096 64.558 77.2096 64.558V52.2278V37.5553H48.9689H20.7281V60.1212ZM96.2329 41.7632C94.3973 42.2137 92.1286 43.5084 91.1629 44.6567C89.3559 46.8053 88.917 48.0942 88.6887 51.9264L88.4691 55.608H91.0762H93.6834V53.9365C93.6834 52.6642 93.8799 52.1419 94.5055 51.751C95.7187 50.9932 96.8213 52.1109 96.8213 54.099V55.608H101.528H106.235V54.099C106.235 53.0885 106.494 52.3554 107.019 51.8797C107.776 51.1941 107.831 51.1941 108.588 51.8797C109.113 52.3554 109.373 53.0885 109.373 54.099V55.608H111.726H114.08V52.0944C114.08 46.2704 112.114 43.3844 107.17 41.9488C105.617 41.4979 97.8517 41.3664 96.2329 41.7632ZM30.6143 47.8183C30.7606 49.8441 30.961 50.3802 31.8596 51.1541C32.8916 52.0418 33.1728 52.0759 39.4658 52.0759C47.2426 52.0759 48.5041 52.417 50.4523 55.0476C51.1603 56.0032 51.9102 56.7853 52.1193 56.7853C52.337 56.7853 52.499 55.2151 52.499 53.1006V49.4163L51.143 49.1616C49.7961 48.9089 48.4436 47.6248 47.9781 46.157C47.7521 45.4451 47.2709 45.4043 39.0893 45.4043H30.4398L30.6143 47.8183ZM33.6718 56.345C33.6718 57.635 33.1168 58.2209 31.7106 58.4156C30.8136 58.54 30.73 58.7185 30.73 60.5136C30.73 62.3087 30.8136 62.4872 31.7106 62.6116C33.0956 62.8032 33.6718 63.3891 33.6718 64.6053C33.6718 66.5495 35.4682 69.4481 37.4427 70.6894C38.9336 71.627 39.7204 71.844 41.7071 71.8668C44.4625 71.8982 45.7506 71.3825 47.8769 69.3951C49.0018 68.3442 49.4423 67.5326 49.8051 65.8431C50.3495 63.3075 50.7417 62.6721 51.7623 62.6721C52.3381 62.6721 52.499 62.3817 52.499 61.3409C52.499 60.2299 52.3279 59.9669 51.4642 59.7503C50.8951 59.6074 49.5058 58.5286 48.377 57.3528L46.3244 55.2155H39.9981H33.6718V56.345ZM80.3475 62.2541C80.3475 65.6975 80.7476 67.1519 81.9913 68.2315C82.7699 68.9069 83.927 68.9513 100.83 68.9513C112.431 68.9513 119.106 68.8076 119.592 68.5471C120.971 67.8089 121.532 66.0597 121.532 62.4955V59.14H100.94H80.3475V62.2541ZM96.8393 62.8467C96.5804 63.1587 96.4267 63.8208 96.4969 64.3184C96.6205 65.1889 96.7813 65.2273 100.744 65.3376C105.863 65.4797 106.627 65.3129 106.627 64.0519C106.627 62.6313 105.552 62.2796 101.21 62.2796C98.2874 62.2796 97.1915 62.4217 96.8393 62.8467ZM37.6741 76.2846C37.3148 77.4568 37.3658 77.6735 38.1173 78.1573C39.4239 78.9988 41.6176 79.2637 43.3693 78.7916C45.465 78.2272 45.9404 77.6236 45.4344 76.1716C45.0387 75.0362 45.0316 75.0342 41.5592 74.9966L38.0809 74.9589L37.6741 76.2846ZM30.7626 79.8041C27.8687 81.0175 25.5427 82.6022 23.8883 84.4876C22.448 86.1288 21.1203 88.9517 21.1203 90.3723V91.3209H41.7125C53.0383 91.3209 62.3028 91.2766 62.3005 91.2228C62.282 90.7966 61.0834 87.2539 60.7143 86.5346C59.3732 83.9205 54.708 80.5403 50.4703 79.1126C49.0995 78.6503 48.9622 78.6868 47.6121 79.8731C45.7204 81.5348 43.789 82.2946 41.4556 82.2946C39.3638 82.2946 36.3817 81.0293 35.0818 79.5898C34.1538 78.5624 33.6663 78.5863 30.7626 79.8041ZM3.46708 95.0527C2.19821 96.5825 4.05112 101.707 6.43903 103.273C9.17564 105.067 8.56689 105.047 62.3048 105.047C116.043 105.047 115.434 105.067 118.171 103.273C119.813 102.196 121.177 99.7452 121.415 97.4459C121.57 95.9373 121.475 95.2944 121.043 94.9358C120.597 94.5649 115.718 94.477 99.9497 94.5551L79.4367 94.6567L79.0096 95.9008C78.4314 97.5848 76.7668 99.372 74.8794 100.335C73.4207 101.08 72.5989 101.132 62.3048 101.132C52.0848 101.132 51.1807 101.076 49.7616 100.352C47.8 99.35 45.9028 97.3372 45.5047 95.8341L45.1928 94.6567L24.5782 94.5551C6.4908 94.466 3.90285 94.5272 3.46708 95.0527ZM48.5896 94.9511C48.6072 95.6151 49.7929 96.9914 50.8225 97.5424C51.993 98.1695 72.6166 98.1695 73.787 97.5424C74.8166 96.9914 76.0023 95.6151 76.02 94.9511C76.0302 94.5676 73.0327 94.4605 62.3048 94.4605C51.5768 94.4605 48.5794 94.5676 48.5896 94.9511Z" fill="#333333"/>
</svg>