<svg    xmlns="http://www.w3.org/2000/svg"
        width="128"
        height="128"
        viewBox="0 0 128 128"
        fill="none"
      >
        <path
          d="M70.1069 107.339C73.2408 107.339 75.4104 104.808 76.897 100.951L103.415 31.6027C104.098 29.7946 104.5 28.2277 104.5 26.8616C104.5 24.0089 102.692 22.2009 99.7988 22.2009C98.4729 22.2009 96.8658 22.5625 95.0979 23.2455L25.4283 49.9241C21.9729 51.25 19.3613 53.4196 19.3613 56.5536C19.3613 60.4107 22.214 61.8571 26.1515 63.0223L55.1604 71.5402L63.5979 100.228C64.8033 104.326 66.2497 107.339 70.1069 107.339ZM57.4908 64.1473L32.5399 56.5134C31.9372 56.3527 31.7765 56.1518 31.7765 55.9107C31.7765 55.6295 31.9372 55.3884 32.4595 55.2277L80.1515 36.9866C83.5667 35.6607 86.9015 34.0536 90.5578 32.3661C87.6649 34.6964 84.1292 37.5491 81.7185 39.9598L57.4908 64.1473ZM70.8301 94.9643C70.5488 94.9643 70.3479 94.7232 70.1872 94.1607L62.5533 69.2098L86.7408 44.9821C89.0712 42.6116 92.0444 38.9554 94.3747 36.0223C92.6872 39.7188 91.0399 43.0938 89.714 46.5491L71.4729 94.2411C71.272 94.7634 71.1113 94.9643 70.8301 94.9643Z"
          fill="#00538E"
        />
      </svg>