<svg width="36" height="36" viewBox="0 0 36 36" fill="none" xmlns="http://www.w3.org/2000/svg">
<path d="M17.9999 17.8041C20.7345 17.8041 22.9494 15.3859 22.9494 12.4252C22.9494 9.50978 20.7345 7.19324 17.9999 7.19324C15.2765 7.19324 13.0391 9.54368 13.0504 12.4478C13.0617 15.3972 15.2652 17.8041 17.9999 17.8041ZM17.9999 15.8266C16.4404 15.8266 15.1183 14.3463 15.1183 12.4478C15.107 10.5946 16.4291 9.17078 17.9999 9.17078C19.5819 9.17078 20.8814 10.572 20.8814 12.4252C20.8814 14.3237 19.5706 15.8266 17.9999 15.8266ZM10.9485 28.3134H25.0399C26.9948 28.3134 27.9328 27.6918 27.9328 26.3584C27.9328 23.2509 24.0568 19.115 17.9999 19.115C11.9429 19.115 8.05566 23.2509 8.05566 26.3584C8.05566 27.6918 8.99358 28.3134 10.9485 28.3134ZM10.5982 26.3358C10.327 26.3358 10.2253 26.2454 10.2253 26.042C10.2253 24.3131 13.0165 21.0925 17.9999 21.0925C22.972 21.0925 25.7631 24.3131 25.7631 26.042C25.7631 26.2454 25.6614 26.3358 25.3902 26.3358H10.5982Z" fill="#BDBDBD"/>
</svg>
