<svg width="64" height="64" viewBox="0 0 64 64" fill="none" xmlns="http://www.w3.org/2000/svg">
<g clip-path="url(#clip0_841_5070)">
<g opacity="0.9">
<mask id="path-1-inside-1_841_5070" fill="white">
<path d="M64 32C64 36.2023 63.1723 40.3635 61.5641 44.2459C59.956 48.1283 57.5989 51.6559 54.6274 54.6274L32 32H64Z"/>
</mask>
<path d="M64 32C64 36.2023 63.1723 40.3635 61.5641 44.2459C59.956 48.1283 57.5989 51.6559 54.6274 54.6274L32 32H64Z" fill="#00538E" stroke="white" mask="url(#path-1-inside-1_841_5070)"/>
</g>
<mask id="path-2-inside-2_841_5070" fill="white">
<path d="M54.6274 54.6274C51.6559 57.5989 48.1283 59.956 44.2459 61.5641C40.3634 63.1723 36.2023 64 32 64L32 32L54.6274 54.6274Z"/>
</mask>
<path d="M54.6274 54.6274C51.6559 57.5989 48.1283 59.956 44.2459 61.5641C40.3634 63.1723 36.2023 64 32 64L32 32L54.6274 54.6274Z" fill="#00538E" stroke="white" mask="url(#path-2-inside-2_841_5070)"/>
<g opacity="0.3">
<mask id="path-3-inside-3_841_5070" fill="white">
<path d="M32 64C27.7977 64 23.6365 63.1723 19.7541 61.5641C15.8717 59.956 12.344 57.5989 9.37257 54.6274L32 32L32 64Z"/>
</mask>
<path d="M32 64C27.7977 64 23.6365 63.1723 19.7541 61.5641C15.8717 59.956 12.344 57.5989 9.37257 54.6274L32 32L32 64Z" fill="#00538E" stroke="white" mask="url(#path-3-inside-3_841_5070)"/>
</g>
<g opacity="0.4">
<mask id="path-4-inside-4_841_5070" fill="white">
<path d="M9.37258 54.6274C6.40111 51.6559 4.044 48.1283 2.43585 44.2459C0.827702 40.3634 -1.36928e-06 36.2023 0 32L32 32L9.37258 54.6274Z"/>
</mask>
<path d="M9.37258 54.6274C6.40111 51.6559 4.044 48.1283 2.43585 44.2459C0.827702 40.3634 -1.36928e-06 36.2023 0 32L32 32L9.37258 54.6274Z" fill="#00538E" stroke="white" mask="url(#path-4-inside-4_841_5070)"/>
</g>
<g opacity="0.5">
<mask id="path-5-inside-5_841_5070" fill="white">
<path d="M0 32C3.67377e-07 27.7977 0.827706 23.6365 2.43586 19.7541C4.04401 15.8717 6.40111 12.344 9.37259 9.37257L32 32L0 32Z"/>
</mask>
<path d="M0 32C3.67377e-07 27.7977 0.827706 23.6365 2.43586 19.7541C4.04401 15.8717 6.40111 12.344 9.37259 9.37257L32 32L0 32Z" fill="#00538E" stroke="white" mask="url(#path-5-inside-5_841_5070)"/>
</g>
<g opacity="0.6">
<mask id="path-6-inside-6_841_5070" fill="white">
<path d="M9.37258 9.37258C12.3441 6.40111 15.8717 4.04401 19.7541 2.43586C23.6365 0.827704 27.7977 -5.01119e-08 32 0V32L9.37258 9.37258Z"/>
</mask>
<path d="M9.37258 9.37258C12.3441 6.40111 15.8717 4.04401 19.7541 2.43586C23.6365 0.827704 27.7977 -5.01119e-08 32 0V32L9.37258 9.37258Z" fill="#00538E" stroke="white" mask="url(#path-6-inside-6_841_5070)"/>
</g>
<g opacity="0.7">
<mask id="path-7-inside-7_841_5070" fill="white">
<path d="M32 0C36.2023 5.01119e-08 40.3635 0.827705 44.2459 2.43586C48.1283 4.04401 51.6559 6.40111 54.6274 9.37259L32 32V0Z"/>
</mask>
<path d="M32 0C36.2023 5.01119e-08 40.3635 0.827705 44.2459 2.43586C48.1283 4.04401 51.6559 6.40111 54.6274 9.37259L32 32V0Z" fill="#00538E" stroke="white" mask="url(#path-7-inside-7_841_5070)"/>
</g>
<g opacity="0.8">
<mask id="path-8-inside-8_841_5070" fill="white">
<path d="M54.6274 9.37258C57.5989 12.3441 59.956 15.8717 61.5641 19.7541C63.1723 23.6366 64 27.7977 64 32L32 32L54.6274 9.37258Z"/>
</mask>
<path d="M54.6274 9.37258C57.5989 12.3441 59.956 15.8717 61.5641 19.7541C63.1723 23.6366 64 27.7977 64 32L32 32L54.6274 9.37258Z" fill="#00538E" stroke="white" mask="url(#path-8-inside-8_841_5070)"/>
</g>
</g>
<defs>
<clipPath id="clip0_841_5070">
<rect width="64" height="64" fill="white"/>
</clipPath>
</defs>
</svg>
