<svg width="24" height="24" viewBox="0 0 24 24" fill="none" xmlns="http://www.w3.org/2000/svg">
<path d="M3.89014 10.4463C3.89014 6.79395 6.86182 3.82227 10.5142 3.82227C14.1665 3.82227 17.1382 6.79395 17.1382 10.4463C17.1382 11.957 16.6318 13.3433 15.7769 14.4556L19.8359 18.5396C20.0103 18.7139 20.1099 18.9546 20.1099 19.2202C20.1099 19.7764 19.7197 20.1997 19.1553 20.1997C18.8896 20.1997 18.6406 20.1084 18.4497 19.9175L14.3657 15.8252C13.2783 16.6055 11.9585 17.0703 10.5142 17.0703C6.86182 17.0703 3.89014 14.0986 3.89014 10.4463ZM5.30957 10.4463C5.30957 13.3184 7.64209 15.6509 10.5142 15.6509C13.3862 15.6509 15.7188 13.3184 15.7188 10.4463C15.7188 7.57422 13.3862 5.2417 10.5142 5.2417C7.64209 5.2417 5.30957 7.57422 5.30957 10.4463Z" fill="#3C3C43" fill-opacity="0.6"/>
</svg>
