<svg width="16" height="16" viewBox="0 0 16 16" fill="none" xmlns="http://www.w3.org/2000/svg">
<rect x="0.75" y="0.75" width="14.5" height="14.5" rx="3.25" stroke="#00538D" stroke-width="1.5"/>
<path d="M7.83324 11.5035C7.61411 11.8248 7.29063 12 6.90454 12C6.51846 12 6.21585 11.8442 5.93411 11.5133L3.4715 8.71947C3.29411 8.50531 3.2002 8.29115 3.2002 8.05752C3.2002 7.57079 3.60715 7.18141 4.12889 7.18141C4.4315 7.18141 4.68193 7.28849 4.93237 7.59026L6.87324 9.87787L11.0263 3.69646C11.2454 3.36548 11.5272 3.2 11.8402 3.2C12.3411 3.2 12.8002 3.52124 12.8002 4.00796C12.8002 4.23186 12.6854 4.46548 12.5393 4.66991L7.83324 11.5035Z" fill="#00538D"/>
</svg>
