<svg width="54" height="54" viewBox="0 0 54 54" fill="none" xmlns="http://www.w3.org/2000/svg">
<g clip-path="url(#clip0_3224_17650)">
<path d="M44.6866 32.4791L35.1781 38.0174C34.7014 38.295 34.2167 38.491 33.7108 38.608C33.8982 38.3073 34.0451 37.9673 34.1459 37.5908C34.6319 35.7766 33.5537 33.8825 31.6911 33.2787C31.655 33.267 31.6182 33.2577 31.5807 33.2509C28.8479 32.7581 26.1507 31.7829 23.9834 30.9994C23.2304 30.7272 22.5194 30.47 21.9147 30.2741C19.4806 29.4843 17.2798 30.462 15.4481 31.5224L8.3739 35.6182L7.70691 34.4397C7.41255 33.9194 6.93172 33.5447 6.35311 33.3842C5.77472 33.2238 5.16944 33.2976 4.64916 33.5921L1.98133 35.1021C1.46095 35.3966 1.08611 35.8773 0.925693 36.4559C0.765275 37.0345 0.839208 37.6397 1.13368 38.1599L8.97707 52.0187C9.27143 52.5388 9.75227 52.9137 10.3309 53.0741C10.5309 53.1296 10.7342 53.157 10.936 53.157C11.3178 53.157 11.6945 53.0588 12.0348 52.8662L14.7028 51.3563C15.223 51.0619 15.5978 50.5811 15.7582 50.0025C15.9186 49.4239 15.8447 48.8187 15.5502 48.2986L14.7416 46.8697L16.3542 45.9386L28.5327 49.2018C29.2204 49.3863 29.8956 49.4782 30.5563 49.4782C31.8734 49.4782 33.1325 49.1124 34.3174 48.3828L51.5732 37.7575C53.1461 36.7891 53.6452 34.3482 52.62 32.6367C52.1223 31.8058 50.0797 29.3384 44.6866 32.4791ZM14.1321 49.5518C14.092 49.6959 13.9996 49.8153 13.8716 49.8877L11.2036 51.3976C10.9415 51.5462 10.5943 51.4501 10.4455 51.1875L2.60222 37.3288C2.52977 37.2008 2.51205 37.051 2.55192 36.9067C2.59189 36.7625 2.68438 36.6431 2.81242 36.5708L5.48026 35.0609C5.56358 35.0137 5.65618 34.9898 5.75047 34.9898C5.80099 34.9898 5.85203 34.9966 5.90234 35.0107C6.04652 35.0506 6.16591 35.1431 6.23836 35.2711L14.0818 49.1299C14.1541 49.2577 14.172 49.4076 14.1321 49.5518ZM50.6884 36.3206L33.4326 46.9459C32.0643 47.7884 30.5626 47.999 28.9695 47.5719L16.4534 44.2182C16.2375 44.1605 16.0071 44.1907 15.8132 44.3025L13.9105 45.401L9.2051 37.0869L16.2936 32.9828C17.8793 32.0646 19.5949 31.2955 21.394 31.8792C21.972 32.0666 22.6382 32.3075 23.4095 32.5864C25.6208 33.3858 28.3689 34.3793 31.2202 34.9006C32.2138 35.2478 32.7695 36.2076 32.5159 37.154C32.1822 38.3992 31.1444 38.5538 30.3196 38.4591C28.919 38.171 27.588 37.7912 26.1798 37.3891C25.512 37.1983 24.8214 37.0012 24.1117 36.811C23.662 36.6907 23.199 36.9576 23.0783 37.4077C22.9577 37.8577 23.225 38.3204 23.675 38.441C24.3714 38.6276 25.0551 38.8229 25.7163 39.0117C27.1677 39.4262 28.5386 39.8177 30.0148 40.1195C30.0204 40.1206 30.026 40.1211 30.0317 40.122C30.0374 40.123 30.0427 40.1246 30.0484 40.1256L31.2308 40.3179C32.9988 40.6008 34.5682 40.3253 36.0274 39.4755L45.5359 33.9372C48.2728 32.343 50.3801 32.1809 51.1723 33.5036C51.7182 34.4153 51.474 35.8369 50.6884 36.3206ZM6.25429 37.7375C6.33044 38.2579 5.97016 38.7416 5.44956 38.8178C4.92908 38.8938 4.4454 38.5335 4.36925 38.0131C4.2932 37.4926 4.65338 37.0089 5.17397 36.9327C5.69457 36.8566 6.17825 37.2169 6.25429 37.7375ZM53.1561 6.53622V4.93003C53.1561 3.25846 51.7961 1.89844 50.1246 1.89844H36.3737C34.7022 1.89844 33.3423 3.25846 33.3423 4.93003V6.53622C33.3423 7.39547 33.7022 8.17182 34.2785 8.72406C33.7022 9.27619 33.3423 10.0525 33.3423 10.9118V12.518C33.3423 12.6382 33.3498 12.7582 33.3642 12.8774C28.9492 13.875 25.642 17.829 25.642 22.5412C25.642 28.004 30.0863 32.4482 35.5491 32.4482C39.201 32.4482 42.3974 30.4617 44.1154 27.5129H50.1246C51.7962 27.5129 53.1561 26.153 53.1561 24.4814V22.8751C53.1561 22.0159 52.7962 21.2395 52.2199 20.6874C52.7962 20.1353 53.1561 19.3589 53.1561 18.4996V16.8935C53.1561 16.0342 52.7962 15.258 52.2199 14.7057C52.7962 14.1536 53.1561 13.3772 53.1561 12.518V10.9118C53.1561 10.0525 52.7962 9.27629 52.2199 8.72406C52.7962 8.17182 53.1561 7.39547 53.1561 6.53622ZM35.5491 30.7606C31.0168 30.7606 27.3295 27.0734 27.3295 22.5411C27.3295 18.0088 31.0168 14.3216 35.5491 14.3216C40.0814 14.3216 43.7686 18.0088 43.7686 22.5411C43.7686 27.0734 40.0813 30.7606 35.5491 30.7606ZM51.4686 22.8751V24.4813C51.4686 25.2223 50.8657 25.8253 50.1246 25.8253H44.8957C45.2581 24.797 45.456 23.6919 45.456 22.5411C45.456 22.2002 45.4387 21.8633 45.4048 21.531H50.1245C50.8657 21.531 51.4686 22.134 51.4686 22.8751ZM51.4686 16.8934V18.4995C51.4686 19.2406 50.8657 19.8435 50.1246 19.8435H45.0826C44.6168 18.1993 43.736 16.7277 42.5612 15.5494H50.1246C50.8657 15.5495 51.4686 16.1523 51.4686 16.8934ZM51.4686 10.9117V12.5179C51.4686 13.259 50.8657 13.8619 50.1246 13.8619H40.3216C38.9052 13.0798 37.2783 12.634 35.5491 12.634C35.3776 12.634 35.2069 12.6384 35.0376 12.6471C35.0334 12.6044 35.0298 12.5614 35.0298 12.5179V10.9117C35.0298 10.1707 35.6327 9.5677 36.3737 9.5677H50.1246C50.8657 9.5677 51.4686 10.1707 51.4686 10.9117ZM36.3737 7.8802C35.6327 7.8802 35.0298 7.27724 35.0298 6.53611V4.93003C35.0298 4.1889 35.6327 3.58594 36.3737 3.58594H50.1246C50.8657 3.58594 51.4686 4.1889 51.4686 4.93003V6.53622C51.4686 7.27734 50.8657 7.88031 50.1246 7.88031L36.3737 7.8802ZM39.2782 24.5609C39.3722 25.335 39.1635 26.0427 38.6748 26.6077C38.159 27.2039 37.3354 27.618 36.3927 27.7725V28.2763C36.3927 28.7422 36.0149 29.12 35.549 29.12C35.083 29.12 34.7052 28.7422 34.7052 28.2763V27.759C33.2648 27.4843 32.1572 26.5248 31.8228 25.1831C31.7101 24.7309 31.9853 24.2731 32.4374 24.1604C32.8899 24.0478 33.3474 24.3229 33.4602 24.775C33.7214 25.8229 34.8017 26.169 35.6471 26.1509C36.3862 26.1333 37.0735 25.8792 37.3983 25.5037C37.5744 25.3001 37.6394 25.0652 37.6029 24.7643C37.5414 24.2584 37.2377 23.6393 35.4204 23.3411C32.7716 22.906 32.1531 21.5289 32.1008 20.4502C32.0282 18.9578 33.0629 17.7094 34.6751 17.3436C34.6851 17.3414 34.695 17.3392 34.705 17.337V16.8058C34.705 16.3399 35.0828 15.9621 35.5488 15.9621C36.0147 15.9621 36.3925 16.3399 36.3925 16.8058V17.3295C37.4527 17.5484 38.469 18.2083 38.995 19.4611C39.1754 19.8908 38.9733 20.3853 38.5438 20.5657C38.1143 20.746 37.6196 20.5442 37.4391 20.1144C36.9974 19.0626 35.9203 18.7917 35.0483 18.9892C34.4129 19.1334 33.7476 19.5714 33.7862 20.3682C33.7995 20.6423 33.8349 21.3705 35.6937 21.6757C37.8834 22.0353 39.0893 23.0059 39.2782 24.5609ZM17.7649 8.85948H19.39V19.2947C19.39 19.7606 19.7678 20.1384 20.2338 20.1384H23.6502C24.1162 20.1384 24.4939 19.7606 24.4939 19.2947V8.85948H26.119C26.4294 8.85948 26.7148 8.68894 26.862 8.41556C27.0092 8.14219 26.9942 7.81007 26.8232 7.55093L22.6462 1.2227C22.49 0.986133 22.2254 0.84375 21.942 0.84375C21.6586 0.84375 21.394 0.986133 21.2378 1.2227L17.0608 7.55093C16.8899 7.81007 16.8749 8.14219 17.022 8.41556C17.1691 8.68904 17.4545 8.85948 17.7649 8.85948ZM21.942 3.21912L24.5511 7.17198H23.6502C23.1842 7.17198 22.8064 7.54977 22.8064 8.01573V18.4509H21.0775V8.01573C21.0775 7.54977 20.6997 7.17198 20.2338 7.17198H19.3328L21.942 3.21912Z" fill="#00538E"/>
</g>
<defs>
<clipPath id="clip0_3224_17650">
<rect width="54" height="54" fill="white"/>
</clipPath>
</defs>
</svg>
