<svg xmlns="http://www.w3.org/2000/svg" width="24" height="23" viewBox="0 0 24 23" fill="none">
  <path d="M16.9 13.7086C17.0875 13.8961 17.3418 14.0014 17.607 14.0014C17.8722 14.0014 18.1265 13.8961 18.314 13.7086L23.263 8.7586C23.4952 8.52644 23.6794 8.25081 23.8051 7.94746C23.9308 7.6441 23.9955 7.31896 23.9955 6.9906C23.9955 6.66224 23.9308 6.33709 23.8051 6.03373C23.6794 5.73038 23.4952 5.45475 23.263 5.2226L18.313 0.273595C18.1228 0.101168 17.8736 0.00847164 17.617 0.0146989C17.3604 0.0209262 17.116 0.1256 16.9344 0.307048C16.7529 0.488495 16.648 0.732821 16.6416 0.989438C16.6352 1.24605 16.7277 1.49531 16.9 1.68559L21.2 5.9856H5C3.67392 5.9856 2.40215 6.51238 1.46447 7.45006C0.526784 8.38774 0 9.65951 0 10.9856L0 17.9856C0.00158786 19.3112 0.528882 20.582 1.46622 21.5194C2.40356 22.4567 3.67441 22.984 5 22.9856H19C19.2652 22.9856 19.5196 22.8802 19.7071 22.6927C19.8946 22.5052 20 22.2508 20 21.9856C20 21.7204 19.8946 21.466 19.7071 21.2785C19.5196 21.091 19.2652 20.9856 19 20.9856H5C4.20435 20.9856 3.44129 20.6695 2.87868 20.1069C2.31607 19.5443 2 18.7812 2 17.9856V10.9856C2 10.1899 2.31607 9.42688 2.87868 8.86427C3.44129 8.30167 4.20435 7.9856 5 7.9856H21.212L16.9 12.2946C16.7125 12.4821 16.6072 12.7364 16.6072 13.0016C16.6072 13.2668 16.7125 13.5211 16.9 13.7086Z" fill="#00538E"/>
</svg>