<svg width="150" height="48" viewBox="0 0 150 48" fill="none" xmlns="http://www.w3.org/2000/svg">
<path d="M1 47H15M149 47H137M41 47H59M41 47V3C41 1.89543 41.8954 1 43 1H57C58.1046 1 59 1.89543 59 3V47M41 47H33M59 47H67M33 47V24C33 22.8954 32.1046 22 31 22H17C15.8954 22 15 22.8954 15 24V47M33 47H15M67 47V14C67 12.8954 67.8954 12 69 12H83C84.1046 12 85 12.8954 85 14V47M67 47H85M85 47H111M111 47V8.5C111 7.39543 110.105 6.5 109 6.5H95C93.8954 6.5 93 7.39543 93 8.5V47M111 47H137M137 47V30C137 28.8954 136.105 28 135 28H121C119.895 28 119 28.8954 119 30V47" stroke="#00538E" stroke-width="2" stroke-linecap="round"/>
</svg>
