<svg width="24" height="24" viewBox="0 0 24 24" fill="none" xmlns="http://www.w3.org/2000/svg">
<path d="M6.16158 16.3292C5.84517 16.6456 5.8301 17.2107 6.16911 17.5421C6.50058 17.8736 7.06559 17.8661 7.382 17.5497L11.9925 12.9316L16.6105 17.5497C16.9345 17.8736 17.4919 17.8736 17.8234 17.5421C18.1473 17.2031 18.1549 16.6532 17.8234 16.3292L13.2129 11.7112L17.8234 7.10072C18.1549 6.77678 18.1549 6.2193 17.8234 5.88783C17.4844 5.56389 16.9345 5.55636 16.6105 5.8803L11.9925 10.4983L7.382 5.8803C7.06559 5.56389 6.49305 5.54882 6.16911 5.88783C5.83764 6.2193 5.84517 6.78431 6.16158 7.10072L10.7796 11.7112L6.16158 16.3292Z" fill="#8E8E93"/>
</svg>
