<svg width="16" height="16" viewBox="0 0 16 16" fill="none" xmlns="http://www.w3.org/2000/svg">
<g id="plus">
<rect width="16" height="16" rx="8" fill="white"/>
<path id="plus_2" d="M4.3638 8.375H7.42742V11.4386C7.42742 11.75 7.68356 12.0112 7.99996 12.0112C8.31637 12.0112 8.57251 11.75 8.57251 11.4386V8.375H11.6361C11.9475 8.375 12.2087 8.11886 12.2087 7.80246C12.2087 7.48605 11.9475 7.22991 11.6361 7.22991H8.57251V4.16629C8.57251 3.85491 8.31637 3.59375 7.99996 3.59375C7.68356 3.59375 7.42742 3.85491 7.42742 4.16629V7.22991H4.3638C4.05242 7.22991 3.79126 7.48605 3.79126 7.80246C3.79126 8.11886 4.05242 8.375 4.3638 8.375Z" fill="#00538E"/>
</g>
</svg>
